<?xml version="1.0" encoding="utf-8"?>
<!-- Generator: Adobe Illustrator 16.0.0, SVG Export Plug-In . SVG Version: 6.00 Build 0)  -->
<!DOCTYPE svg PUBLIC "-//W3C//DTD SVG 1.1//EN" "http://www.w3.org/Graphics/SVG/1.1/DTD/svg11.dtd">
<svg version="1.1" id="Слой_1" xmlns="http://www.w3.org/2000/svg" xmlns:xlink="http://www.w3.org/1999/xlink" x="0px" y="0px"
	 width="595.28px" height="841.89px" viewBox="0 0 595.28 841.89" enable-background="new 0 0 595.28 841.89" xml:space="preserve">
<g>
	<path fill-rule="evenodd" clip-rule="evenodd" fill="#010101" d="M309.338,135.717l-2.172,1.094
		C184.03,229.439,109.921,340.588,85.948,450.643C56.52,584.685,213.442,617.379,278.831,489.886
		c5.441-10.911,10.895-19.615,20.692-25.068c-17.425,86.095-49.024,151.468-105.696,184.163c76.284,0,153.647,0,231.038,0
		c-57.767-32.695-89.363-98.068-105.713-184.163c8.722,5.453,14.161,14.157,19.613,25.068
		c66.468,127.493,223.393,94.799,193.961-39.243c-25.054-110.055-99.161-221.203-222.293-313.832L309.338,135.717z"/>
	<path fill-rule="evenodd" clip-rule="evenodd" fill="#FFFFFF" d="M356.694,612.808c-18.538-26.699-34.423-57.912-47.597-94.079
		v-0.316c-0.056-0.154-0.117-0.308-0.172-0.462c-0.02,0.059-0.043,0.109-0.065,0.163c-0.016-0.054-0.036-0.104-0.059-0.163
		c-0.056,0.154-0.114,0.308-0.171,0.462v0.316c-13.172,36.167-29.063,67.38-47.599,94.079c-0.854,0.715-8.686,17.946,26.476,6.249
		c0,0,0.468,9.636,21.287,9.681v0.005c0.023,0,0.046-0.005,0.065-0.005c0.025,0,0.048,0.005,0.07,0.005v-0.005
		c20.819-0.045,23.623-9.681,23.623-9.681C367.723,630.754,357.549,613.522,356.694,612.808z"/>
	<path fill-rule="evenodd" clip-rule="evenodd" fill="#FFFFFF" d="M169.769,441.043
		C170.203,442.748,170.198,442.205,169.769,441.043L169.769,441.043z M447.731,441.672
		C447.302,442.834,447.302,443.377,447.731,441.672L447.731,441.672z M524.521,445.189
		c-23.037-96.159-84.001-191.921-181.423-273.232c-16.463-14.509-25.854-21.269-30.651-24.326c-0.151-0.113-0.29-0.231-0.44-0.343
		l-0.145-0.068c0.081,0.059,0.16,0.126,0.241,0.189c-2.767-1.74-3.886-2.174-3.886-2.174s-0.805,0.302-2.857,1.578
		c0.095-0.077,0.188-0.154,0.282-0.226l-0.146,0.072c-0.156,0.117-0.303,0.235-0.455,0.353c-3.643,2.297-10.855,7.424-23.852,18.646
		c-101.42,82.5-164.632,180.505-188.209,278.902c-25.074,103.933,62.447,147.688,130.888,97.413
		c2.493-1.832,13.033-13.171,8.738-21.342c-4.772-9.075-16.66-13.858-29.684-9.318c-13.022,4.539-20.852,16.073-17.477,25.759
		c2.901,8.338,13.165,12.552,24.272,10.675c-59.911,24.294-122.437-15.341-108.872-98.736c11.248,42.932,54.93,48.946,59.445,24.014
		c1.311-7.239-8.023-13.329-17.926-13.329c-9.9,0-17.924,5.968-17.924,13.329c0,2.966,1.346,5.679,3.548,7.891
		c-20.852-8.216-22.161-57.871-17.992-68.398c-0.332,1.678-0.701,3.364-0.977,5.032c0,0,0.344,12.534,8.44,19.606
		c0,0,40.384-15.093,51.374,1.952c0.418,0.643,0.726,1.349,0.936,1.936c-0.127-0.52-0.283-1.166-0.498-2.151
		c-6.448-29.924-20.293-128.168,50.262-213.07c2.198-2.427,4.458-4.833,6.71-7.239c10.266-3.509,56.003-16.861,74.298,15.55
		c-12.561-17.797-36.593-11.327-31.719,10.87c4.239,19.457,17.336,39.103,39.103,55.475l0.384,0.194l0.195-0.194
		c21.767-16.373,34.865-36.019,39.292-55.475c5.015-22.842-20.551-28.956-32.921-9.174c17.624-34.188,64.396-21.129,75.672-17.381
		c2.496,2.659,4.992,5.322,7.425,8.003c70.554,84.901,56.704,183.146,50.262,213.073c-0.218,0.986-0.371,1.633-0.502,2.148
		c0.212-0.583,0.521-1.288,0.936-1.936c10.992-17.041,51.375-1.948,51.375-1.948c8.098-7.072,8.44-19.61,8.44-19.61
		c-0.276-1.664-0.646-3.35-0.977-5.027c4.169,10.521,2.863,60.177-17.991,68.397c2.202-2.216,3.545-4.929,3.545-7.891
		c0-7.361-8.021-13.329-17.924-13.329c-9.901,0-19.233,6.086-17.923,13.329c4.513,24.927,48.2,18.919,59.445-24.018
		c13.561,83.399-48.965,123.036-108.875,98.741c11.109,1.876,21.369-2.338,24.272-10.676c3.377-9.686-4.45-21.22-17.472-25.764
		c-13.027-4.54-24.914,0.244-29.688,9.323c-4.296,8.166,6.248,19.511,8.735,21.342C462.078,592.877,549.598,549.127,524.521,445.189
		z M157.696,410.717c0.52,5.941,1.23,11.231,1.978,16.012c-0.506-0.068-1.031-0.091-1.542-0.149
		c-10.682-3.519-32.887-12.765-29.575-27.604c0.499,1.592,1.571,2.917,3.235,3.708c4.248,2.017,10.619-0.159,14.231-4.856
		c3.602-4.697,3.095-10.164-1.173-12.167c-14.365-6.72-31.404,23.616,0.918,40.563c-9.785,0.435-19.812,2.315-28.463,4.671
		c-2.468-3.739-3.42-8.257-3.63-10.698c-0.009-0.067-0.009-0.117-0.016-0.189c7.485-36.028,28.597-79.412,54.428-113.658
		C153.989,346.231,155.612,386.722,157.696,410.717z M187.495,264.581c4.045-5.286,7.911-10.191,11.605-14.781
		C195.126,254.701,191.253,259.625,187.495,264.581z M319.767,208.062c-4.422,2.948-8.249,6.484-11.584,10.499
		c-3.368-4.092-7.229-7.696-11.718-10.675c-8.923-5.923-18.866-8.745-28.599-9.762c21.554-20.184,33.988-30.249,40.466-35.011
		c6.666,4.757,19.384,14.817,41.028,34.998C339.282,199.09,328.973,201.921,319.767,208.062z M418.4,250.428
		c3.698,4.59,7.56,9.496,11.606,14.786C426.249,260.258,422.379,255.33,418.4,250.428z M503.83,420.828
		c-0.212,2.437-1.167,6.954-3.636,10.697c-8.649-2.355-18.674-4.236-28.458-4.671c32.319-16.951,15.282-47.282,0.913-40.563
		c-4.269,1.999-4.774,7.465-1.171,12.167c3.613,4.698,9.982,6.873,14.229,4.852c1.663-0.792,2.74-2.111,3.237-3.703
		c3.31,14.839-18.892,24.086-29.576,27.604c-0.51,0.059-1.035,0.082-1.541,0.149c0.75-4.779,1.455-10.069,1.976-16.011
		c2.084-23.997,3.713-64.491-10.386-104.375c25.826,34.251,46.942,77.63,54.426,113.663
		C503.839,420.705,503.839,420.756,503.83,420.828z"/>
</g>
</svg>
