<?xml version="1.0" encoding="UTF-8" standalone="no"?>
<!-- Created with Inkscape (http://www.inkscape.org/) -->

<svg
   xmlns:dc="http://purl.org/dc/elements/1.1/"
   xmlns:cc="http://creativecommons.org/ns#"
   xmlns:rdf="http://www.w3.org/1999/02/22-rdf-syntax-ns#"
   xmlns:svg="http://www.w3.org/2000/svg"
   xmlns="http://www.w3.org/2000/svg"
   xmlns:sodipodi="http://sodipodi.sourceforge.net/DTD/sodipodi-0.dtd"
   xmlns:inkscape="http://www.inkscape.org/namespaces/inkscape"
   width="744.09448819"
   height="1052.3622047"
   id="svg2"
   version="1.1"
   inkscape:version="0.48.4 r9939"
   sodipodi:docname="Новый документ 1">
  <defs
     id="defs4" />
  <sodipodi:namedview
     id="base"
     pagecolor="#ffffff"
     bordercolor="#666666"
     borderopacity="1.0"
     inkscape:pageopacity="0.0"
     inkscape:pageshadow="2"
     inkscape:zoom="0.35"
     inkscape:cx="375"
     inkscape:cy="520"
     inkscape:document-units="px"
     inkscape:current-layer="layer1"
     showgrid="false"
     inkscape:window-width="1600"
     inkscape:window-height="838"
     inkscape:window-x="-8"
     inkscape:window-y="-8"
     inkscape:window-maximized="1" />
  <metadata
     id="metadata7">
    <rdf:RDF>
      <cc:Work
         rdf:about="">
        <dc:format>image/svg+xml</dc:format>
        <dc:type
           rdf:resource="http://purl.org/dc/dcmitype/StillImage" />
        <dc:title></dc:title>
      </cc:Work>
    </rdf:RDF>
  </metadata>
  <g
     inkscape:label="Layer 1"
     inkscape:groupmode="layer"
     id="layer1">
    <g
       id="ace"
       transform="matrix(2.8182732,0,0,2.8182732,-478.35807,-626.91369)">
	<g
   id="g2987">
		<path
   id="path2989"
   d="m 301.086,274.479 c -0.521,0.404 -0.889,0.616 -1.497,1.078 -38.754,28.782 -83.966,84.938 -88.601,154.951 -2.204,33.306 16.102,56.359 39.768,56.863 15.108,0.319 27.254,-5.922 33.838,-17.851 5.468,-9.922 6.866,-25.216 7.753,-18.146 3.187,26.96 -6.518,52.868 -11.767,75.501 5.855,-2.471 13.211,-3.72 20.583,-3.746 h 0.122 c 7.36,0.028 14.704,1.275 20.553,3.746 -5.244,-22.633 -14.934,-48.541 -11.751,-75.501 0.886,-7.069 2.278,8.223 7.741,18.146 6.579,11.929 18.727,18.173 33.835,17.851 23.668,-0.506 41.97,-23.561 39.765,-56.863 -4.637,-70.013 -49.85,-126.169 -88.574,-154.951 -0.418,-0.371 -0.766,-0.688 -1.4,-1.078 h -0.368 z"
   inkscape:connector-curvature="0"
   style="fill:none;stroke:#010101;stroke-width:1.5;stroke-linejoin:round" />

		<path
   id="path2991"
   d="m 237.165,446.929 c -0.039,-0.563 -0.058,-1.113 -0.056,-1.656 l 0,0 c 0,-13.093 10.159,-24.095 23.393,-24.958 l 0,0 c 0.691,-0.051 1.372,-0.067 2.047,-0.067 l 0,0 c 16.175,0 29.775,12.563 30.846,28.938 l 0,0 h 0.003 c 0.049,0.758 -0.528,1.413 -1.285,1.459 l 0,0 c -0.76,0.051 -1.416,-0.524 -1.462,-1.285 l 0,0 c -0.972,-14.912 -13.374,-26.363 -28.102,-26.363 l 0,0 c -0.623,0 -1.238,0.024 -1.863,0.064 l 0,0 c -11.784,0.764 -20.825,10.569 -20.825,22.211 l 0,0 c 0,0.486 0.014,0.973 0.048,1.47 l 0,0 c 0.604,9.282 8.322,16.405 17.489,16.405 l 0,0 c 0.383,0 0.771,-0.014 1.163,-0.038 l 0,0 c 7.283,-0.471 12.867,-6.534 12.867,-13.722 l 0,0 c 0,-0.299 -0.011,-0.604 -0.029,-0.903 l 0,0 c -0.37,-5.68 -5.097,-10.042 -10.702,-10.042 l 0,0 c -0.242,0 -0.471,0.005 -0.71,0.027 l 0,0 c -4.399,0.287 -7.773,3.945 -7.773,8.28 l 0,0 c 0,0.189 0.005,0.366 0.019,0.555 l 0,0 c 0.218,3.373 3.028,5.959 6.358,5.959 l 0,0 c 0.136,0 0.287,-0.006 0.418,-0.009 l 0,0 c 2.552,-0.166 4.512,-2.292 4.512,-4.809 l 0,0 c 0,-0.106 -0.006,-0.223 -0.011,-0.322 l 0,0 c -0.122,-1.895 -1.704,-3.354 -3.575,-3.354 l 0,0 c -0.097,0 -0.16,0.003 -0.231,0.011 l 0,0 c -1.376,0.089 -2.428,1.231 -2.428,2.583 l 0,0 c 0,0.064 0.003,0.11 0.005,0.143 l 0,0 c 0.066,0.759 -0.492,1.428 -1.249,1.494 l 0,0 c -0.758,0.064 -1.429,-0.494 -1.492,-1.247 l 0,0 c -0.014,-0.153 -0.017,-0.281 -0.017,-0.39 l 0,0 c 0,-2.801 2.172,-5.142 4.952,-5.327 l 0,0 c 0.188,-0.02 0.341,-0.02 0.46,-0.02 l 0,0 c 3.319,0 6.101,2.579 6.322,5.943 l 0,0 c 0.008,0.153 0.014,0.314 0.014,0.486 l 0,0 c 0,3.962 -3.071,7.29 -7.118,7.557 l 0,0 c -0.17,0.005 -0.357,0.014 -0.562,0.016 l 0,0 c -4.772,-0.002 -8.788,-3.704 -9.102,-8.523 l 0,0 c -0.017,-0.258 -0.025,-0.505 -0.025,-0.747 l 0,0 c 0,-5.784 4.492,-10.642 10.316,-11.026 l 0,0 c 0.322,-0.026 0.63,-0.031 0.917,-0.034 l 0,0 c 7.054,0.003 12.977,5.478 13.447,12.619 l 0,0 c 0.023,0.355 0.036,0.719 0.036,1.081 l 0,0 c 0,8.639 -6.705,15.896 -15.446,16.472 l 0,0 c -0.443,0.024 -0.884,0.037 -1.333,0.04 l 0,0 c -10.613,-10e-4 -19.532,-8.236 -20.236,-18.971 l 0,0 z"
   inkscape:connector-curvature="0"
   style="fill:#010101" />

		<path
   id="path2993"
   d="m 343.817,465.859 c -8.726,-0.575 -15.415,-7.833 -15.415,-16.461 l 0,0 c 0,-0.363 0.008,-0.731 0.037,-1.092 l 0,0 c 0.462,-7.134 6.382,-12.611 13.421,-12.611 l 0,0 c 0.287,0 0.594,0.005 0.888,0.029 l 0,0 c 5.848,0.387 10.329,5.244 10.329,11.028 l 0,0 c 0,0.251 -0.008,0.487 -0.024,0.737 l 0,0 c -0.312,4.827 -4.319,8.531 -9.088,8.531 l 0,0 c -0.209,0 -0.398,-0.005 -0.597,-0.016 l 0,0 c -4.005,-0.267 -7.074,-3.595 -7.074,-7.557 l 0,0 c 0,-0.156 0,-0.338 0.019,-0.497 l 0,0 c 0.218,-3.352 2.994,-5.93 6.309,-5.93 l 0,0 c 0.118,0 0.271,0 0.414,0.017 l 0,0 c 2.825,0.188 4.991,2.531 4.991,5.335 l 0,0 c 0,0.129 -0.002,0.229 -0.005,0.304 l 0,0 c -0.025,0.758 -0.662,1.353 -1.423,1.331 l 0,0 c -0.757,-0.024 -1.354,-0.661 -1.33,-1.42 l 0,0 c 0.002,-0.104 0.005,-0.174 0.005,-0.218 l 0,0 c 0,-1.356 -1.05,-2.497 -2.459,-2.588 l 0,0 c -0.04,-0.005 -0.097,-0.008 -0.193,-0.008 l 0,0 c -1.865,0 -3.443,1.457 -3.569,3.402 l 0,0 c -0.006,0.057 -0.011,0.153 -0.011,0.271 l 0,0 c 0,2.517 1.962,4.647 4.473,4.806 l 0,0 c 0.167,0.009 0.317,0.017 0.451,0.014 l 0,0 c 3.322,0.003 6.126,-2.583 6.344,-5.945 l 0,0 c 0.011,-0.202 0.016,-0.39 0.016,-0.564 l 0,0 c 0,-4.338 -3.37,-7.997 -7.781,-8.284 l 0,0 c -0.213,-0.021 -0.443,-0.027 -0.683,-0.027 l 0,0 c -5.583,0 -10.309,4.363 -10.676,10.059 l 0,0 c -0.022,0.285 -0.033,0.589 -0.033,0.896 l 0,0 c 0,7.185 5.577,13.243 12.835,13.713 l 0,0 c 0.396,0.022 0.785,0.038 1.167,0.038 l 0,0 c 9.145,0 16.855,-7.123 17.458,-16.402 l 0,0 c 0.029,-0.502 0.045,-0.991 0.045,-1.476 l 0,0 c 0.006,-11.641 -9.022,-21.443 -20.791,-22.21 l 0,0 c -0.621,-0.04 -1.239,-0.062 -1.859,-0.06 l 0,0 c -14.7,-0.002 -27.108,11.448 -28.072,26.361 l 0,0 v 0.003 c -0.052,0.758 -0.707,1.333 -1.46,1.287 l 0,0 c -0.761,-0.054 -1.336,-0.709 -1.285,-1.468 l 0,0 c 1.064,-16.369 14.665,-28.936 30.817,-28.936 l 0,0 c 0.672,0 1.354,0.021 2.043,0.067 l 0,0 c 13.224,0.865 23.36,11.873 23.36,24.954 l 0,0 c 0,0.543 -0.016,1.092 -0.054,1.654 l 0,0 c -0.701,10.737 -9.607,18.976 -20.205,18.976 l 0,0 c -0.445,-0.003 -0.889,-0.016 -1.335,-0.043 l 0,0 z"
   inkscape:connector-curvature="0"
   style="fill:#010101" />

		<path
   id="path2995"
   d="m 301.296,461.23 c -0.366,0 -0.715,-0.146 -0.975,-0.403 l 0,0 c -0.263,-0.258 -0.402,-0.604 -0.402,-0.973 l 0,0 c 0.003,-0.216 0.014,-0.427 0.027,-0.64 l 0,0 c -0.286,-5.086 -4.505,-10.446 -6.716,-12.763 l 0,0 c -0.759,-0.812 -1.232,-1.247 -1.235,-1.247 l 0,0 c -0.399,-0.362 -0.548,-0.922 -0.386,-1.438 l 0,0 c 0.003,-0.017 2.604,-8.14 4.553,-16.91 l 0,0 c 1.338,-5.973 2.375,-12.418 3.873,-17.81 l 0,0 c -0.601,-2.094 -1.239,-3.995 -1.941,-5.624 l 0,0 c -0.034,-0.078 -0.058,-0.161 -0.074,-0.239 l 0,0 c -2.781,-6.97 -9.389,-11.415 -16.438,-11.413 l 0,0 c -1.872,0 -3.776,0.312 -5.662,0.976 l 0,0 c -5.603,1.965 -9.104,7.23 -9.107,12.848 l 0,0 c 0.003,1.502 0.25,3.026 0.778,4.524 l 0,0 c 1.534,4.365 5.641,7.102 10.02,7.102 l 0,0 c 1.172,0 2.359,-0.193 3.525,-0.605 l 0,0 c 3.383,-1.193 5.497,-4.374 5.5,-7.757 l 0,0 c -0.003,-0.909 -0.151,-1.829 -0.471,-2.731 l 0,0 c -0.911,-2.593 -3.349,-4.211 -5.946,-4.211 l 0,0 c -0.693,0 -1.395,0.11 -2.094,0.36 l 0,0 c -1.962,0.686 -3.185,2.529 -3.188,4.497 l 0,0 c 0,0.521 0.089,1.053 0.275,1.583 l 0,0 c 0.509,1.449 1.88,2.361 3.336,2.361 l 0,0 c 0.393,0 0.787,-0.063 1.175,-0.197 l 0,0 c 1.051,-0.374 1.71,-1.363 1.71,-2.417 l 0,0 c 0,-0.279 -0.047,-0.562 -0.147,-0.846 l 0,0 c -0.259,-0.731 -0.94,-1.18 -1.667,-1.183 l 0,0 c -0.192,0 -0.389,0.03 -0.589,0.102 l 0,0 c -0.471,0.161 -0.76,0.602 -0.763,1.075 l 0,0 c 0.003,0.122 0.025,0.247 0.07,0.376 l 0,0 v 0.005 c 0.25,0.718 -0.128,1.5 -0.845,1.755 l 0,0 c -0.719,0.25 -1.503,-0.126 -1.754,-0.847 l 0,0 c -0.15,-0.419 -0.226,-0.857 -0.223,-1.291 l 0,0 c -0.003,-1.61 1.002,-3.113 2.599,-3.671 l 0,0 c 0.492,-0.172 1.001,-0.258 1.503,-0.258 l 0,0 c 1.865,0 3.611,1.161 4.266,3.021 l 0,0 c 0.204,0.581 0.299,1.177 0.299,1.76 l 0,0 c 0,2.196 -1.364,4.233 -3.546,5.011 l 0,0 c -0.691,0.241 -1.399,0.355 -2.09,0.355 l 0,0 c -2.596,0 -5.02,-1.621 -5.931,-4.199 l 0,0 c -0.29,-0.825 -0.43,-1.667 -0.43,-2.497 l 0,0 c -0.003,-3.104 1.938,-6.01 5.029,-7.091 l 0,0 c 0.988,-0.353 2.006,-0.517 3.005,-0.517 l 0,0 c 3.732,0 7.228,2.328 8.543,6.048 l 0,0 c 0.425,1.208 0.628,2.438 0.628,3.647 l 0,0 c 0,4.53 -2.826,8.761 -7.338,10.352 l 0,0 c -1.466,0.518 -2.963,0.763 -4.439,0.763 l 0,0 c -5.519,0 -10.679,-3.443 -12.617,-8.94 l 0,0 c -0.63,-1.795 -0.933,-3.631 -0.93,-5.438 l 0,0 c -0.003,-6.758 4.21,-13.077 10.944,-15.445 l 0,0 c 2.176,-0.766 4.395,-1.134 6.575,-1.134 l 0,0 c 8.299,0.005 15.967,5.26 19.094,13.401 l 0,0 c 0.017,0.049 0.033,0.095 0.047,0.144 l 0,0 c 0.271,0.645 0.528,1.319 0.78,2.023 l 0,0 c 0.323,-0.82 0.667,-1.594 1.042,-2.312 l 0,0 c 4.012,-7.671 11.15,-13.195 19.35,-13.214 l 0,0 c 2.039,0 4.136,0.347 6.235,1.091 l 0,0 c 6.73,2.372 10.945,8.69 10.942,15.445 l 0,0 c 0.003,1.801 -0.298,3.634 -0.93,5.438 l 0,0 c -1.938,5.5 -7.096,8.94 -12.614,8.938 l 0,0 c -1.476,0.002 -2.976,-0.245 -4.44,-0.76 l 0,0 c -4.516,-1.589 -7.338,-5.819 -7.336,-10.352 l 0,0 c -0.002,-1.211 0.199,-2.446 0.627,-3.645 l 0,0 c 1.312,-3.723 4.806,-6.053 8.542,-6.053 l 0,0 c 0.994,0 2.011,0.166 3.011,0.519 l 0,0 c 3.088,1.091 5.021,3.986 5.019,7.091 l 0,0 c 0,0.828 -0.141,1.667 -0.428,2.497 l 0,0 c -0.908,2.583 -3.336,4.204 -5.93,4.199 l 0,0 c -0.698,0.005 -1.402,-0.116 -2.086,-0.355 l 0,0 c -2.188,-0.769 -3.554,-2.815 -3.548,-5.011 l 0,0 c -0.006,-0.58 0.086,-1.183 0.298,-1.76 l 0,0 c 0.656,-1.86 2.4,-3.021 4.267,-3.021 l 0,0 c 0.494,0 1.005,0.075 1.499,0.258 l 0,0 c 1.603,0.567 2.603,2.061 2.6,3.671 l 0,0 c 0.003,0.436 -0.072,0.865 -0.21,1.277 l 0,0 c -0.244,0.718 -1.023,1.104 -1.746,0.863 l 0,0 c -0.724,-0.242 -1.105,-1.022 -0.863,-1.745 l 0,0 c 0.054,-0.15 0.066,-0.285 0.069,-0.398 l 0,0 c -0.003,-0.471 -0.29,-0.914 -0.769,-1.078 l 0,0 c -0.193,-0.07 -0.381,-0.1 -0.58,-0.1 l 0,0 c -0.729,0 -1.414,0.455 -1.672,1.194 l 0,0 c -0.095,0.269 -0.14,0.548 -0.146,0.836 l 0,0 c 0.006,1.056 0.658,2.045 1.71,2.411 l 0,0 c 0.39,0.139 0.787,0.202 1.177,0.202 l 0,0 c 1.457,0 2.825,-0.906 3.333,-2.355 l 0,0 c 0.188,-0.535 0.273,-1.07 0.273,-1.588 l 0,0 c 0,-1.965 -1.22,-3.812 -3.182,-4.497 l 0,0 c -0.699,-0.25 -1.4,-0.363 -2.095,-0.363 l 0,0 c -2.593,0 -5.034,1.624 -5.944,4.22 l 0,0 c -0.32,0.898 -0.468,1.817 -0.468,2.726 l 0,0 c 0,3.384 2.115,6.567 5.496,7.757 l 0,0 c 1.173,0.406 2.355,0.603 3.526,0.603 l 0,0 c 4.379,0 8.483,-2.731 10.019,-7.096 l 0,0 c 0.524,-1.505 0.773,-3.027 0.773,-4.526 l 0,0 c 0,-5.616 -3.502,-10.881 -9.104,-12.854 l 0,0 c -1.817,-0.637 -3.592,-0.93 -5.322,-0.93 l 0,0 c -6.887,-0.017 -13.24,4.73 -16.918,11.738 l 0,0 c -0.784,1.489 -1.465,3.366 -2.081,5.494 l 0,0 c 1.501,5.406 2.713,11.714 4.065,17.778 l 0,0 c 1.849,8.312 4.284,16.05 4.531,16.843 l 0,0 c 0.221,0.543 0.075,1.175 -0.379,1.563 l 0,0 c 0,0.002 -0.508,0.438 -1.314,1.247 l 0,0 c -0.801,0.813 -1.882,1.98 -2.951,3.378 l 0,0 c -2.021,2.632 -3.955,6.083 -4.16,9.373 l 0,0 c 0.013,0.207 0.021,0.416 0.023,0.626 l 0,0 c 0,0.368 -0.144,0.715 -0.402,0.974 l 0,0 c -0.259,0.261 -0.605,0.403 -0.974,0.403 l 0,0 h -0.047 v 0.006 z m 0.057,-7.563 c 2.058,-4.739 5.767,-8.454 7.287,-9.887 l 0,0 c -0.704,-2.271 -2.752,-9.082 -4.37,-16.358 l 0,0 c -0.945,-4.282 -1.834,-8.666 -2.784,-12.711 l 0,0 c -0.892,4.056 -1.707,8.504 -2.643,12.744 l 0,0 c -1.615,7.273 -3.658,14.071 -4.365,16.351 l 0,0 c 1.434,1.423 4.929,5.146 6.875,9.861 l 0,0 z"
   inkscape:connector-curvature="0"
   style="fill:#010101" />

		<path
   id="path2997"
   d="m 327.789,352.843 c -4.946,0 -9.913,-1.779 -13.835,-5.384 l 0,0 c -3.583,-3.279 -5.405,-7.781 -5.405,-12.283 l 0,0 c 0,-4.017 1.452,-8.064 4.387,-11.255 l 0,0 c 2.677,-2.924 6.354,-4.413 10.026,-4.413 l 0,0 c 3.276,-0.003 6.583,1.185 9.192,3.577 l 0,0 c 2.397,2.199 3.618,5.215 3.615,8.228 l 0,0 c 0.003,2.688 -0.976,5.398 -2.933,7.538 l 0,0 c -1.812,1.976 -4.3,2.986 -6.784,2.983 l 0,0 c -2.221,0 -4.457,-0.801 -6.215,-2.419 l 0,0 c -1.643,-1.505 -2.478,-3.57 -2.478,-5.634 l 0,0 c 0,-1.838 0.666,-3.698 2.007,-5.156 l 0,0 c 1.256,-1.373 2.984,-2.075 4.707,-2.075 l 0,0 c 1.538,0 3.089,0.56 4.312,1.68 l 0,0 c 1.159,1.059 1.75,2.521 1.747,3.97 l 0,0 c 0,1.299 -0.471,2.602 -1.414,3.637 l 0,0 c -0.903,0.979 -2.145,1.481 -3.381,1.481 l 0,0 c -1.103,0 -2.218,-0.4 -3.094,-1.205 l 0,0 c -0.563,-0.516 -0.6,-1.384 -0.084,-1.943 l 0,0 c 0.517,-0.562 1.382,-0.599 1.946,-0.086 l 0,0 c 0.35,0.325 0.785,0.479 1.231,0.481 l 0,0 c 0.5,-0.003 0.983,-0.194 1.347,-0.591 l 0,0 c 0.468,-0.511 0.693,-1.14 0.693,-1.777 l 0,0 c -0.003,-0.72 -0.282,-1.421 -0.852,-1.938 l 0,0 c -0.71,-0.645 -1.576,-0.957 -2.457,-0.959 l 0,0 c -0.99,0.002 -1.957,0.395 -2.683,1.182 l 0,0 c -0.86,0.938 -1.28,2.107 -1.28,3.293 l 0,0 c 0,1.327 0.527,2.634 1.586,3.604 l 0,0 c 1.233,1.137 2.79,1.694 4.354,1.694 l 0,0 c 1.753,0 3.479,-0.705 4.756,-2.089 l 0,0 c 1.48,-1.624 2.206,-3.647 2.209,-5.677 l 0,0 c -0.003,-2.283 -0.911,-4.538 -2.723,-6.196 l 0,0 c -2.095,-1.919 -4.712,-2.857 -7.333,-2.857 l 0,0 c -2.935,0 -5.854,1.183 -7.999,3.521 l 0,0 c -2.454,2.669 -3.656,6.029 -3.656,9.389 l 0,0 c 0,3.769 1.517,7.513 4.511,10.26 l 0,0 c 3.403,3.12 7.69,4.658 11.978,4.658 l 0,0 c 4.801,0 9.574,-1.933 13.074,-5.747 l 0,0 c 3.959,-4.325 5.911,-9.769 5.913,-15.203 l 0,0 c -0.002,-6.09 -2.451,-12.149 -7.289,-16.593 l 0,0 v 0.003 c -0.56,-0.516 -0.603,-1.387 -0.086,-1.946 l 0,0 c 0.513,-0.562 1.387,-0.599 1.946,-0.083 l 0,0 c 5.429,4.978 8.187,11.792 8.184,18.622 l 0,0 c 0.003,6.093 -2.198,12.213 -6.639,17.065 l 0,0 c -4.034,4.397 -9.562,6.636 -15.093,6.636 l 0,0 c -0.003,0.007 -0.003,0.007 -0.008,0.007 l 0,0 z"
   inkscape:connector-curvature="0"
   style="fill:#010101" />

		<path
   id="path2999"
   d="m 259.357,346.207 c -4.443,-4.852 -6.642,-10.972 -6.639,-17.063 l 0,0 c -0.003,-6.827 2.757,-13.646 8.184,-18.625 l 0,0 h 0.004 c 0.561,-0.514 1.432,-0.478 1.942,0.083 l 0,0 c 0.515,0.559 0.48,1.432 -0.08,1.943 l 0,0 c -4.846,4.44 -7.296,10.499 -7.298,16.595 l 0,0 c 0.002,5.436 1.954,10.875 5.917,15.198 l 0,0 c 3.499,3.819 8.277,5.749 13.083,5.749 l 0,0 c 4.289,0 8.58,-1.54 11.992,-4.658 l 0,0 c 3.001,-2.747 4.517,-6.489 4.517,-10.257 l 0,0 c 0,-3.363 -1.206,-6.72 -3.661,-9.395 l 0,0 c -2.146,-2.338 -5.07,-3.516 -8.018,-3.518 l 0,0 c -2.629,0.002 -5.251,0.94 -7.34,2.854 l 0,0 c -1.811,1.661 -2.725,3.919 -2.725,6.198 l 0,0 c 0,2.033 0.726,4.056 2.209,5.677 l 0,0 c 1.278,1.393 3.009,2.091 4.759,2.094 l 0,0 c 1.565,0 3.125,-0.556 4.369,-1.696 l 0,0 c 1.056,-0.967 1.582,-2.276 1.585,-3.604 l 0,0 c -0.003,-1.183 -0.421,-2.355 -1.285,-3.295 l 0,0 c -0.722,-0.785 -1.696,-1.18 -2.687,-1.18 l 0,0 c -0.887,0 -1.762,0.312 -2.461,0.957 l 0,0 c -0.573,0.522 -0.856,1.224 -0.859,1.941 l 0,0 c 0.003,0.637 0.227,1.263 0.694,1.773 l 0,0 c 0.362,0.4 0.85,0.591 1.352,0.594 l 0,0 c 0.448,-0.003 0.886,-0.158 1.243,-0.483 l 0,0 c 0.562,-0.511 1.434,-0.471 1.946,0.091 l 0,0 c 0.512,0.562 0.468,1.433 -0.09,1.946 l 0,0 c -0.879,0.798 -1.996,1.202 -3.099,1.199 l 0,0 c -1.231,0.003 -2.478,-0.502 -3.38,-1.483 l 0,0 c -0.95,-1.03 -1.42,-2.341 -1.42,-3.635 l 0,0 c 0,-1.454 0.591,-2.914 1.75,-3.97 l 0,0 c 1.223,-1.121 2.783,-1.68 4.319,-1.68 l 0,0 c 1.723,0 3.454,0.702 4.712,2.07 l 0,0 c 1.339,1.463 2.011,3.32 2.009,5.161 l 0,0 c 0.002,2.065 -0.84,4.129 -2.479,5.637 l 0,0 c -1.767,1.612 -4.005,2.417 -6.227,2.417 l 0,0 c -2.483,0 -4.979,-1.006 -6.79,-2.981 l 0,0 c -1.962,-2.143 -2.937,-4.854 -2.934,-7.54 l 0,0 c -0.003,-3.016 1.221,-6.031 3.62,-8.228 l 0,0 c 2.608,-2.395 5.917,-3.578 9.201,-3.578 l 0,0 c 3.679,0 7.364,1.486 10.043,4.411 l 0,0 c 2.935,3.192 4.391,7.238 4.388,11.257 l 0,0 c 0.003,4.505 -1.822,9.002 -5.412,12.287 l 0,0 c -3.935,3.599 -8.906,5.384 -13.85,5.384 l 0,0 c -5.532,-0.008 -11.066,-2.248 -15.104,-6.647 l 0,0 z"
   inkscape:connector-curvature="0"
   style="fill:#010101" />

		<path
   id="path3001"
   d="m 251.883,392.946 c -6.524,-2.15 -10.658,-8.212 -10.658,-14.729 l 0,0 c 0,-1.613 0.251,-3.258 0.785,-4.865 l 0,0 c 1.765,-5.336 6.718,-8.72 12.044,-8.72 l 0,0 c 1.318,0 2.666,0.207 3.98,0.645 l 0,0 c 4.385,1.449 7.164,5.519 7.162,9.897 l 0,0 c 0,1.089 -0.171,2.186 -0.525,3.271 l 0,0 c -1.2,3.618 -4.561,5.911 -8.182,5.911 l 0,0 c -0.898,0 -1.807,-0.14 -2.702,-0.43 l 0,0 c -3.013,-0.997 -4.923,-3.795 -4.923,-6.811 l 0,0 c 0,-0.743 0.119,-1.505 0.366,-2.245 l 0,0 c 0.837,-2.524 3.178,-4.126 5.702,-4.126 l 0,0 c 0.627,0 1.264,0.097 1.889,0.304 l 0,0 c 2.134,0.704 3.493,2.694 3.493,4.828 l 0,0 c 0,0.524 -0.084,1.064 -0.255,1.588 l 0,0 c -0.236,0.723 -1.016,1.115 -1.738,0.878 l 0,0 c -0.723,-0.239 -1.117,-1.016 -0.88,-1.736 l 0,0 c 0.083,-0.248 0.118,-0.498 0.118,-0.734 l 0,0 c 0,-0.976 -0.622,-1.893 -1.604,-2.218 l 0,0 c -0.339,-0.113 -0.677,-0.164 -1.019,-0.164 l 0,0 c -1.361,0 -2.643,0.866 -3.09,2.239 l 0,0 c -0.154,0.457 -0.223,0.919 -0.223,1.379 l 0,0 c 0,1.852 1.174,3.583 3.033,4.193 l 0,0 c 0.61,0.204 1.23,0.292 1.838,0.292 l 0,0 c 2.464,0 4.76,-1.557 5.566,-4.021 l 0,0 c 0.263,-0.806 0.39,-1.615 0.39,-2.411 l 0,0 c 0,-3.22 -2.042,-6.222 -5.27,-7.281 l 0,0 c -1.041,-0.341 -2.087,-0.505 -3.119,-0.505 l 0,0 c -4.168,0 -8.053,2.645 -9.429,6.827 l 0,0 c -0.441,1.325 -0.647,2.672 -0.647,4 l 0,0 c 0,5.352 3.4,10.349 8.766,12.114 l 0,0 c 1.696,0.56 3.419,0.828 5.111,0.828 l 0,0 c 6.84,0 13.215,-4.344 15.474,-11.193 l 0,0 c 0.711,-2.161 1.053,-4.346 1.053,-6.496 l 0,0 c -0.003,-8.693 -5.523,-16.797 -14.231,-19.67 l 0,0 c -2.735,-0.901 -5.505,-1.328 -8.229,-1.328 l 0,0 c -11.012,0 -21.274,6.992 -24.916,18.023 l 0,0 h 0.004 c -0.241,0.729 -1.016,1.116 -1.74,0.876 l 0,0 c -0.723,-0.236 -1.114,-1.014 -0.875,-1.736 l 0,0 c 4.026,-12.19 15.354,-19.915 27.527,-19.915 l 0,0 c 3.011,0 6.075,0.471 9.09,1.471 l 0,0 c 9.869,3.258 16.123,12.429 16.123,22.283 l 0,0 c 0,2.44 -0.386,4.919 -1.192,7.362 l 0,0 c -2.646,8.002 -10.088,13.082 -18.087,13.082 l 0,0 c -1.986,0.012 -4,-0.303 -5.98,-0.957 l 0,0 z"
   inkscape:connector-curvature="0"
   style="fill:#010101" />

		<path
   id="path3003"
   d="m 326.773,380.832 c -0.813,-2.446 -1.193,-4.927 -1.193,-7.37 l 0,0 c 0,-9.846 6.246,-19.015 16.101,-22.275 l 0,0 c 3.008,-0.998 6.063,-1.47 9.074,-1.47 l 0,0 c 12.155,0 23.465,7.73 27.481,19.915 l 0,0 c 0.236,0.723 -0.153,1.5 -0.876,1.74 l 0,0 c -0.721,0.236 -1.501,-0.156 -1.737,-0.876 l 0,0 c -3.631,-11.037 -13.874,-18.025 -24.868,-18.028 l 0,0 c -2.721,0.003 -5.486,0.427 -8.209,1.333 l 0,0 c -8.693,2.871 -14.211,10.972 -14.211,19.663 l 0,0 c 0,2.153 0.335,4.341 1.057,6.504 l 0,0 c 2.252,6.852 8.617,11.19 15.441,11.193 l 0,0 c 1.688,-0.003 3.403,-0.269 5.099,-0.825 l 0,0 c 5.36,-1.771 8.755,-6.761 8.755,-12.114 l 0,0 c 0,-1.328 -0.21,-2.675 -0.647,-4.005 l 0,0 c -1.371,-4.18 -5.253,-6.825 -9.41,-6.825 l 0,0 c -1.033,0 -2.075,0.162 -3.11,0.505 l 0,0 c -3.22,1.063 -5.26,4.067 -5.263,7.285 l 0,0 c 0.003,0.798 0.123,1.604 0.393,2.405 l 0,0 c 0.812,2.468 3.102,4.026 5.556,4.026 l 0,0 c 0.604,0 1.223,-0.091 1.833,-0.296 l 0,0 c 1.85,-0.607 3.029,-2.341 3.029,-4.19 l 0,0 c 0,-0.457 -0.072,-0.927 -0.226,-1.384 l 0,0 c -0.446,-1.371 -1.726,-2.237 -3.086,-2.237 l 0,0 c -0.339,0 -0.677,0.051 -1.017,0.164 l 0,0 c -0.975,0.323 -1.596,1.236 -1.599,2.215 l 0,0 c 0.003,0.25 0.037,0.486 0.118,0.723 l 0,0 c 0.242,0.72 -0.143,1.5 -0.863,1.745 l 0,0 c -0.72,0.244 -1.499,-0.143 -1.744,-0.863 l 0,0 c -0.18,-0.535 -0.264,-1.086 -0.264,-1.604 l 0,0 c 0,-2.134 1.353,-4.118 3.481,-4.822 l 0,0 c 0.629,-0.21 1.266,-0.307 1.892,-0.307 l 0,0 c 2.521,-0.003 4.865,1.605 5.699,4.134 l 0,0 c 0.242,0.737 0.359,1.495 0.359,2.239 l 0,0 c 0,3.014 -1.902,5.806 -4.913,6.809 l 0,0 c -0.892,0.291 -1.801,0.43 -2.696,0.43 l 0,0 c -3.614,0.003 -6.975,-2.295 -8.168,-5.911 l 0,0 c -0.36,-1.086 -0.53,-2.188 -0.53,-3.271 l 0,0 c 0,-4.381 2.777,-8.448 7.153,-9.897 l 0,0 c 1.313,-0.438 2.655,-0.648 3.973,-0.648 l 0,0 c 5.321,0 10.265,3.384 12.026,8.72 l 0,0 c 0.526,1.61 0.784,3.252 0.781,4.868 l 0,0 c 0.003,6.513 -4.123,12.574 -10.639,14.729 l 0,0 c -1.979,0.648 -3.986,0.965 -5.962,0.965 l 0,0 c -7.995,-0.009 -15.43,-5.09 -18.07,-13.092 l 0,0 z"
   inkscape:connector-curvature="0"
   style="fill:#010101" />

		<g
   id="g3005">
			<path
   id="path3007"
   d="m 318.792,554.281 c -1.432,0 -2.889,-0.242 -4.308,-0.747 l 0,0 c -4.277,-1.54 -6.938,-5.564 -6.938,-9.862 l 0,0 c 0,-1.181 0.191,-2.376 0.621,-3.54 l 0,0 c 1.269,-3.537 4.591,-5.741 8.145,-5.738 l 0,0 c 0.974,-0.003 1.962,0.161 2.928,0.511 l 0,0 c 2.938,1.059 4.765,3.825 4.765,6.778 l 0,0 c 0,0.807 -0.134,1.627 -0.419,2.433 l 0,0 c -0.888,2.468 -3.206,4 -5.685,4 l 0,0 c -0.68,0 -1.368,-0.118 -2.035,-0.355 l 0,0 c -2.086,-0.747 -3.384,-2.706 -3.384,-4.806 l 0,0 c 0,-0.569 0.094,-1.164 0.304,-1.723 l 0,0 c 0.637,-1.777 2.312,-2.89 4.102,-2.89 l 0,0 c 0.484,0 0.983,0.081 1.471,0.258 l 0,0 c 1.54,0.554 2.494,2 2.491,3.54 l 0,0 c 0,0.425 -0.069,0.853 -0.22,1.274 l 0,0 c -0.239,0.661 -0.667,1.199 -1.199,1.572 l 0,0 c 0.698,-0.368 1.274,-0.989 1.559,-1.79 l 0,0 c 0.178,-0.511 0.264,-1.019 0.264,-1.514 l 0,0 c 0,-1.825 -1.129,-3.54 -2.943,-4.188 l 0,0 c -0.664,-0.236 -1.333,-0.347 -1.997,-0.35 l 0,0 c -2.419,0.003 -4.698,1.503 -5.562,3.922 l 0,0 c -0.312,0.857 -0.457,1.736 -0.457,2.607 l 0,0 c 0,3.16 1.966,6.137 5.115,7.271 l 0,0 c 1.118,0.397 2.258,0.589 3.384,0.589 l 0,0 c 4.1,-0.003 7.954,-2.54 9.419,-6.623 l 0,0 c 0.514,-1.438 0.755,-2.903 0.755,-4.339 l 0,0 c 0,-5.271 -3.266,-10.219 -8.51,-12.092 l 0,0 0,0 c -0.715,-0.257 -1.089,-1.047 -0.835,-1.762 l 0,0 c 0.255,-0.72 1.045,-1.091 1.76,-0.836 l 0,0 c 6.371,2.285 10.341,8.287 10.338,14.688 l 0,0 c 0.003,1.747 -0.296,3.526 -0.916,5.265 l 0,0 c -1.874,5.207 -6.777,8.448 -12.002,8.448 l 0,0 c -0.005,-0.001 -0.008,-0.001 -0.011,-0.001 l 0,0 z m -3.427,-12.109 c -0.091,0.253 -0.137,0.514 -0.137,0.779 l 0,0 c 0,0.396 0.099,0.777 0.288,1.119 l 0,0 c 0,-0.143 0.026,-0.285 0.075,-0.431 l 0,0 c 0.252,-0.718 1.037,-1.089 1.757,-0.839 l 0,0 c 0.06,0.02 0.124,0.03 0.184,0.03 l 0,0 c 0.218,0 0.43,-0.138 0.499,-0.334 l 0,0 c 0.047,-0.134 0.063,-0.25 0.063,-0.359 l 0,0 c -0.003,-0.412 -0.255,-0.808 -0.675,-0.952 l 0,0 c -0.183,-0.064 -0.357,-0.094 -0.538,-0.094 l 0,0 c -0.655,10e-4 -1.277,0.409 -1.516,1.081 l 0,0 z"
   inkscape:connector-curvature="0"
   style="fill:#010101" />

			<path
   id="path3009"
   d="m 334.861,534.783 c -3.841,0.003 -7.696,-1.411 -10.706,-4.255 l 0,0 0.002,0.002 c -0.556,-0.524 -0.58,-1.393 -0.056,-1.945 l 0,0 c 0.516,-0.552 1.387,-0.578 1.945,-0.057 l 0,0 c 2.481,2.347 5.645,3.496 8.812,3.499 l 0,0 c 3.416,-0.003 6.816,-1.347 9.349,-4.023 l 0,0 c 1.827,-1.94 2.726,-4.402 2.731,-6.87 l 0,0 c -0.006,-2.661 -1.055,-5.306 -3.138,-7.271 l 0,0 c -1.5,-1.416 -3.395,-2.112 -5.306,-2.115 l 0,0 c -2.06,0.003 -4.1,0.81 -5.62,2.428 l 0,0 c -1.081,1.145 -1.61,2.592 -1.61,4.054 l 0,0 c 0,1.566 0.618,3.129 1.853,4.298 l 0,0 c 0.859,0.812 1.948,1.209 3.048,1.212 l 0,0 c 1.188,-0.003 2.356,-0.468 3.241,-1.393 l 0,0 c 0.588,-0.629 0.882,-1.408 0.893,-2.207 l 0,0 c -0.097,0.64 -0.385,1.267 -0.866,1.779 l 0,0 c -0.735,0.772 -1.733,1.175 -2.73,1.172 l 0,0 c -0.919,0.003 -1.854,-0.338 -2.58,-1.021 l 0,0 c -0.909,-0.857 -1.371,-2.019 -1.368,-3.17 l 0,0 c -0.003,-1.075 0.4,-2.155 1.188,-2.991 l 0,0 c 1,-1.066 2.366,-1.607 3.718,-1.602 l 0,0 c 1.258,-0.006 2.526,0.465 3.505,1.395 l 0,0 c 1.25,1.183 1.893,2.785 1.893,4.39 l 0,0 c 0,1.479 -0.543,2.979 -1.65,4.147 l 0,0 c -1.417,1.489 -3.33,2.255 -5.236,2.252 l 0,0 c -1.771,0.003 -3.554,-0.652 -4.946,-1.964 l 0,0 c -1.801,-1.702 -2.712,-4.008 -2.709,-6.298 l 0,0 c -0.003,-2.132 0.779,-4.277 2.355,-5.94 l 0,0 c 2.058,-2.186 4.848,-3.293 7.628,-3.29 l 0,0 c 2.58,-0.003 5.174,0.957 7.192,2.862 l 0,0 c 2.656,2.503 4,5.895 3.994,9.273 l 0,0 c 0.006,3.14 -1.15,6.295 -3.48,8.763 l 0,0 c -3.062,3.239 -7.201,4.884 -11.335,4.884 l 0,0 c -0.003,0.002 -0.006,0.002 -0.011,0.002 l 0,0 z m 1.088,-16.982 c -0.301,0.317 -0.438,0.704 -0.44,1.102 l 0,0 c 0.003,0.428 0.164,0.847 0.505,1.169 l 0,0 c 0.196,0.181 0.437,0.27 0.691,0.272 l 0,0 c 0.266,-0.003 0.532,-0.103 0.738,-0.312 l 0,0 c 0.098,-0.108 0.146,-0.234 0.146,-0.369 l 0,0 c 0,-0.143 -0.059,-0.282 -0.172,-0.39 l 0,0 c -0.548,-0.524 -0.569,-1.395 -0.048,-1.946 l 0,0 c 0.104,-0.11 0.225,-0.199 0.354,-0.266 l 0,0 c -0.021,-0.006 -0.043,-0.006 -0.06,-0.006 l 0,0 c -0.636,0.009 -1.251,0.252 -1.714,0.746 l 0,0 z"
   inkscape:connector-curvature="0"
   style="fill:#010101" />

			<path
   id="path3011"
   d="m 353.039,546.655 c -2.209,0.003 -4.424,-0.896 -6.036,-2.649 l 0,0 c -1.205,-1.31 -1.81,-2.974 -1.81,-4.627 l 0,0 c -0.003,-1.847 0.745,-3.695 2.212,-5.04 l 0,0 c 1.1,-1.011 2.5,-1.518 3.887,-1.515 l 0,0 c 1.549,-0.003 3.103,0.629 4.236,1.859 l 0,0 c 0.857,0.928 1.285,2.123 1.279,3.293 l 0,0 c 0.006,1.312 -0.529,2.626 -1.569,3.591 l 0,0 c -0.799,0.733 -1.823,1.099 -2.825,1.099 l 0,0 c -1.121,0 -2.25,-0.459 -3.066,-1.344 l 0,0 c -0.635,-0.69 -0.963,-1.577 -0.96,-2.451 l 0,0 c -0.003,-0.971 0.396,-1.954 1.166,-2.656 l 0,0 c 0.143,-0.131 0.29,-0.247 0.446,-0.343 l 0,0 c -0.258,0.126 -0.502,0.287 -0.728,0.496 l 0,0 c -0.882,0.808 -1.323,1.896 -1.325,3.011 l 0,0 c 0.002,0.989 0.356,1.971 1.083,2.761 l 0,0 c 1.078,1.17 2.54,1.763 4.016,1.766 l 0,0 c 1.325,-0.003 2.64,-0.479 3.69,-1.438 l 0,0 c 1.535,-1.419 2.309,-3.338 2.314,-5.273 l 0,0 c -0.006,-1.733 -0.624,-3.466 -1.893,-4.844 l 0,0 c -1.838,-2.002 -4.33,-3.003 -6.841,-3.005 l 0,0 c -2.25,0 -4.502,0.812 -6.287,2.456 l 0,0 0.003,0.003 c -0.562,0.516 -1.433,0.479 -1.946,-0.081 l 0,0 c -0.519,-0.562 -0.481,-1.433 0.08,-1.946 l 0,0 c 2.31,-2.125 5.239,-3.182 8.15,-3.18 l 0,0 c 3.244,-0.002 6.491,1.31 8.871,3.893 l 0,0 c 1.749,1.897 2.614,4.312 2.611,6.706 l 0,0 c 0.003,2.669 -1.083,5.342 -3.201,7.298 l 0,0 c -1.569,1.444 -3.563,2.164 -5.539,2.164 l 0,0 c -0.012,-0.004 -0.012,-0.004 -0.018,-0.004 l 0,0 z m -1.629,-8.407 c -0.177,0.167 -0.271,0.387 -0.273,0.626 l 0,0 c 0.002,0.212 0.069,0.411 0.23,0.586 l 0,0 c 0.065,0.07 0.146,0.137 0.221,0.193 l 0,0 c -0.1,-0.457 0.037,-0.954 0.398,-1.298 l 0,0 c 0.026,-0.024 0.031,-0.044 0.031,-0.057 l 0,0 c -0.005,-0.019 -0.005,-0.029 -0.011,-0.037 l 0,0 c -0.094,-0.095 -0.192,-0.135 -0.307,-0.138 l 0,0 c -0.1,0.004 -0.191,0.041 -0.289,0.125 l 0,0 z"
   inkscape:connector-curvature="0"
   style="fill:#010101" />

		</g>

		<g
   id="g3013">
			<path
   id="path3015"
   d="m 271.812,545.79 c -0.63,-1.739 -0.922,-3.519 -0.922,-5.269 l 0,0 c 0,-6.405 3.969,-12.399 10.337,-14.684 l 0,0 c 0.713,-0.256 1.503,0.112 1.76,0.827 l 0,0 c 0.258,0.721 -0.116,1.506 -0.832,1.764 l 0,0 c -5.243,1.881 -8.51,6.822 -8.513,12.096 l 0,0 c 0.003,1.438 0.242,2.897 0.756,4.339 l 0,0 c 1.464,4.085 5.321,6.622 9.424,6.625 l 0,0 c 1.118,0 2.258,-0.19 3.377,-0.588 l 0,0 c 3.154,-1.13 5.117,-4.107 5.117,-7.279 l 0,0 c 0,-0.865 -0.147,-1.75 -0.457,-2.61 l 0,0 c -0.861,-2.411 -3.139,-3.913 -5.56,-3.913 l 0,0 c -0.666,0 -1.332,0.109 -1.997,0.354 l 0,0 c -1.817,0.647 -2.946,2.363 -2.949,4.188 l 0,0 c 0.003,0.498 0.083,1 0.265,1.503 l 0,0 c 0.286,0.804 0.857,1.422 1.555,1.793 l 0,0 c -0.528,-0.376 -0.956,-0.909 -1.192,-1.564 l 0,0 c -0.152,-0.423 -0.223,-0.857 -0.223,-1.277 l 0,0 c 0,-1.546 0.964,-2.988 2.477,-3.534 l 0,0 c 0.496,-0.186 1.002,-0.267 1.486,-0.264 l 0,0 c 1.792,-0.003 3.466,1.107 4.104,2.887 l 0,0 c 0.2,0.565 0.299,1.15 0.299,1.726 l 0,0 c 0.003,2.095 -1.299,4.057 -3.388,4.81 l 0,0 c -0.664,0.233 -1.349,0.352 -2.031,0.349 l 0,0 c -2.479,0.003 -4.795,-1.535 -5.679,-3.994 l 0,0 c -0.288,-0.804 -0.427,-1.626 -0.427,-2.433 l 0,0 c 0,-2.957 1.831,-5.723 4.765,-6.776 l 0,0 c 0.969,-0.354 1.962,-0.519 2.931,-0.519 l 0,0 c 3.55,0 6.878,2.204 8.151,5.738 l 0,0 c 0.416,1.161 0.616,2.36 0.616,3.538 l 0,0 c 0,4.303 -2.661,8.329 -6.941,9.867 l 0,0 c -1.42,0.508 -2.874,0.75 -4.302,0.75 l 0,0 c -5.229,0.004 -10.136,-3.243 -12.007,-8.45 l 0,0 z m 15.212,-2.185 c 0.047,0.136 0.069,0.278 0.071,0.416 l 0,0 c 0.182,-0.339 0.284,-0.726 0.284,-1.115 l 0,0 c 0,-0.267 -0.045,-0.532 -0.137,-0.794 l 0,0 c -0.236,-0.658 -0.859,-1.066 -1.518,-1.069 l 0,0 c -0.182,0.003 -0.354,0.032 -0.539,0.097 l 0,0 c -0.413,0.151 -0.669,0.538 -0.672,0.952 l 0,0 c 0,0.115 0.023,0.226 0.063,0.344 l 0,0 c 0.07,0.215 0.278,0.35 0.498,0.352 l 0,0 c 0.058,-0.002 0.122,-0.01 0.198,-0.034 l 0,0 c 0.149,-0.054 0.301,-0.078 0.449,-0.078 l 0,0 c 0.573,-0.001 1.108,0.359 1.303,0.929 l 0,0 z"
   inkscape:connector-curvature="0"
   style="fill:#010101" />

			<path
   id="path3017"
   d="m 256.397,529.853 c -2.321,-2.464 -3.479,-5.619 -3.477,-8.757 l 0,0 c -0.002,-3.384 1.342,-6.773 3.998,-9.275 l 0,0 c 2.02,-1.912 4.616,-2.863 7.191,-2.863 l 0,0 c 2.781,0 5.563,1.103 7.624,3.282 l 0,0 c 1.579,1.669 2.363,3.819 2.363,5.943 l 0,0 c 0,2.295 -0.917,4.596 -2.715,6.303 l 0,0 c -1.39,1.312 -3.173,1.962 -4.943,1.962 l 0,0 c -1.907,0 -3.826,-0.763 -5.237,-2.255 l 0,0 c -1.099,-1.164 -1.652,-2.666 -1.649,-4.145 l 0,0 c -0.003,-1.6 0.633,-3.212 1.894,-4.393 l 0,0 c 0.979,-0.93 2.249,-1.397 3.501,-1.396 l 0,0 c 1.352,-0.002 2.71,0.541 3.716,1.603 l 0,0 c 0.792,0.839 1.191,1.922 1.189,2.992 l 0,0 c 0.002,1.153 -0.46,2.312 -1.369,3.171 l 0,0 c -0.725,0.684 -1.663,1.025 -2.579,1.022 l 0,0 c -1,0.003 -2.001,-0.401 -2.736,-1.181 l 0,0 c -0.481,-0.505 -0.767,-1.131 -0.864,-1.776 l 0,0 c 0.014,0.801 0.305,1.583 0.901,2.209 l 0,0 c 0.875,0.928 2.049,1.39 3.236,1.393 l 0,0 c 1.1,-0.003 2.19,-0.4 3.049,-1.204 l 0,0 c 1.233,-1.172 1.853,-2.733 1.856,-4.304 l 0,0 c -0.003,-1.457 -0.532,-2.905 -1.613,-4.05 l 0,0 c -1.526,-1.616 -3.563,-2.422 -5.621,-2.425 l 0,0 c -1.906,0.003 -3.807,0.698 -5.305,2.112 l 0,0 c -2.086,1.968 -3.136,4.609 -3.138,7.276 l 0,0 c 0.002,2.465 0.906,4.93 2.73,6.865 l 0,0 c 2.527,2.677 5.926,4.023 9.345,4.026 l 0,0 c 3.17,-0.003 6.336,-1.158 8.819,-3.505 l 0,0 v 0.003 c 0.552,-0.521 1.422,-0.498 1.946,0.056 l 0,0 c 0.52,0.549 0.494,1.423 -0.056,1.944 l 0,0 c -3.011,2.84 -6.873,4.257 -10.713,4.257 l 0,0 c -4.131,-0.001 -8.276,-1.648 -11.343,-4.89 l 0,0 z m 8.855,-12.558 c 0.517,0.555 0.488,1.428 -0.069,1.941 l 0,0 c -0.104,0.102 -0.158,0.233 -0.16,0.384 l 0,0 c 0.002,0.135 0.047,0.261 0.144,0.363 l 0,0 c 0.197,0.21 0.468,0.319 0.74,0.319 l 0,0 c 0.252,-0.005 0.498,-0.089 0.686,-0.273 l 0,0 c 0.344,-0.325 0.509,-0.745 0.512,-1.172 l 0,0 c -0.003,-0.398 -0.144,-0.788 -0.438,-1.098 l 0,0 c -0.473,-0.499 -1.087,-0.744 -1.715,-0.746 l 0,0 c -0.021,0 -0.041,0 -0.06,0.002 l 0,0 c 0.129,0.074 0.252,0.165 0.36,0.28 l 0,0 z"
   inkscape:connector-curvature="0"
   style="fill:#010101" />

			<path
   id="path3019"
   d="m 244.014,544.445 c -2.122,-1.956 -3.201,-4.63 -3.199,-7.297 l 0,0 c 0,-2.393 0.867,-4.807 2.613,-6.706 l 0,0 c 2.369,-2.58 5.623,-3.897 8.87,-3.895 l 0,0 c 2.912,-0.003 5.84,1.056 8.151,3.182 l 0,0 0.003,0.003 c 0.558,0.516 0.594,1.385 0.077,1.943 l 0,0 c -0.518,0.559 -1.387,0.597 -1.941,0.081 l 0,0 c -1.792,-1.65 -4.037,-2.457 -6.289,-2.46 l 0,0 c -2.515,0.003 -5.007,1.008 -6.842,3.003 l 0,0 c -1.266,1.382 -1.889,3.112 -1.891,4.846 l 0,0 c 0.002,1.936 0.776,3.854 2.315,5.273 l 0,0 c 1.048,0.963 2.364,1.434 3.688,1.434 l 0,0 c 1.476,-0.003 2.937,-0.592 4.016,-1.759 l 0,0 c 0.727,-0.787 1.077,-1.774 1.079,-2.763 l 0,0 c -0.002,-1.107 -0.443,-2.201 -1.318,-3.013 l 0,0 c -0.226,-0.205 -0.474,-0.374 -0.735,-0.498 l 0,0 c 0.157,0.097 0.305,0.213 0.443,0.339 l 0,0 c 0.776,0.71 1.172,1.688 1.17,2.658 l 0,0 c 0.002,0.874 -0.311,1.761 -0.956,2.457 l 0,0 c -0.82,0.882 -1.946,1.347 -3.065,1.344 l 0,0 c -1.011,0 -2.026,-0.368 -2.824,-1.102 l 0,0 c -1.042,-0.96 -1.578,-2.277 -1.575,-3.586 l 0,0 c -0.003,-1.178 0.427,-2.363 1.286,-3.296 l 0,0 c 1.13,-1.23 2.687,-1.859 4.231,-1.859 l 0,0 c 1.386,0 2.79,0.505 3.887,1.519 l 0,0 c 1.463,1.344 2.214,3.196 2.208,5.037 l 0,0 c 0.006,1.65 -0.595,3.319 -1.803,4.628 l 0,0 c -1.616,1.751 -3.828,2.647 -6.039,2.647 l 0,0 c -1.985,0.004 -3.983,-0.712 -5.56,-2.16 l 0,0 z m 6.595,-6.224 c -0.011,0.016 -0.014,0.021 -0.014,0.033 l 0,0 c 0.002,0.019 0,0.028 0.024,0.05 l 0,0 c 0.37,0.345 0.507,0.845 0.404,1.304 l 0,0 c 0.078,-0.057 0.152,-0.121 0.22,-0.193 l 0,0 c 0.152,-0.17 0.224,-0.37 0.227,-0.589 l 0,0 c -0.003,-0.236 -0.095,-0.459 -0.281,-0.626 l 0,0 c -0.08,-0.078 -0.176,-0.113 -0.281,-0.113 l 0,0 c -0.115,0.002 -0.214,0.04 -0.299,0.134 l 0,0 z"
   inkscape:connector-curvature="0"
   style="fill:#010101" />

		</g>

		<g
   id="g3021">
			<path
   id="path3023"
   d="m 291.094,279.492 c -4.139,0.002 -8.284,-1.645 -11.348,-4.89 l 0,0 c -2.322,-2.462 -3.48,-5.618 -3.48,-8.757 l 0,0 c 0,-3.382 1.344,-6.771 3.998,-9.276 l 0,0 c 2.022,-1.906 4.616,-2.863 7.19,-2.863 l 0,0 c 2.779,0 5.565,1.107 7.627,3.288 l 0,0 c 1.576,1.667 2.364,3.813 2.361,5.94 l 0,0 c 0.003,2.298 -0.914,4.599 -2.712,6.301 l 0,0 c -1.39,1.314 -3.173,1.967 -4.946,1.965 l 0,0 c -1.909,0.002 -3.826,-0.759 -5.237,-2.256 l 0,0 c -1.098,-1.164 -1.649,-2.661 -1.649,-4.145 l 0,0 c 0,-1.602 0.635,-3.209 1.894,-4.386 l 0,0 c 0.979,-0.933 2.249,-1.406 3.503,-1.4 l 0,0 c 1.35,-0.005 2.708,0.54 3.714,1.599 l 0,0 c 0.792,0.844 1.192,1.925 1.189,2.997 l 0,0 c 0.002,1.153 -0.46,2.313 -1.363,3.17 l 0,0 c -0.727,0.68 -1.663,1.023 -2.582,1.023 l 0,0 c -0.997,0 -2.001,-0.4 -2.737,-1.18 l 0,0 c -0.479,-0.508 -0.765,-1.131 -0.861,-1.776 l 0,0 c 0.016,0.795 0.306,1.578 0.9,2.207 l 0,0 c 0.872,0.925 2.048,1.393 3.234,1.395 l 0,0 c 1.101,-0.002 2.191,-0.403 3.049,-1.214 l 0,0 c 1.234,-1.167 1.854,-2.726 1.856,-4.301 l 0,0 c -0.002,-1.457 -0.528,-2.908 -1.609,-4.054 l 0,0 c -1.528,-1.613 -3.564,-2.422 -5.626,-2.422 l 0,0 c -1.906,0 -3.805,0.696 -5.302,2.11 l 0,0 c -2.086,1.97 -3.131,4.615 -3.134,7.276 l 0,0 c 0.003,2.47 0.901,4.929 2.729,6.868 l 0,0 c 2.526,2.677 5.925,4.026 9.344,4.026 l 0,0 c 3.168,0 6.334,-1.158 8.819,-3.505 l 0,0 v 0.003 c 0.551,-0.521 1.424,-0.5 1.943,0.057 l 0,0 c 0.523,0.551 0.498,1.422 -0.055,1.943 l 0,0 c -3.009,2.843 -6.862,4.258 -10.699,4.258 l 0,0 c -0.004,-10e-4 -0.01,-10e-4 -0.01,-10e-4 l 0,0 z m -2.499,-17.45 c 0.518,0.554 0.49,1.424 -0.061,1.946 l 0,0 c -0.113,0.102 -0.167,0.233 -0.167,0.382 l 0,0 c 0,0.136 0.047,0.26 0.144,0.365 l 0,0 c 0.204,0.213 0.468,0.317 0.74,0.317 l 0,0 c 0.255,-0.003 0.499,-0.092 0.691,-0.269 l 0,0 c 0.338,-0.325 0.504,-0.747 0.506,-1.175 l 0,0 c -0.002,-0.402 -0.146,-0.79 -0.438,-1.104 l 0,0 c -0.47,-0.495 -1.084,-0.736 -1.712,-0.739 l 0,0 c -0.019,0 -0.038,0 -0.058,0 l 0,0 c 0.127,0.072 0.249,0.164 0.355,0.277 l 0,0 z"
   inkscape:connector-curvature="0"
   style="fill:#010101" />

			<path
   id="path3025"
   d="m 272.915,291.362 c -1.982,0.002 -3.979,-0.721 -5.555,-2.164 l 0,0 c -2.122,-1.955 -3.204,-4.632 -3.202,-7.298 l 0,0 c -0.002,-2.395 0.867,-4.806 2.613,-6.707 l 0,0 c 2.372,-2.583 5.626,-3.895 8.872,-3.892 l 0,0 c 2.911,-0.003 5.842,1.054 8.152,3.177 l 0,0 c 0.558,0.52 0.594,1.388 0.077,1.946 l 0,0 c -0.515,0.559 -1.385,0.595 -1.943,0.081 l 0,0 c -1.787,-1.645 -4.032,-2.451 -6.286,-2.451 l 0,0 c -2.513,0 -5.008,1.003 -6.841,3 l 0,0 c -1.269,1.381 -1.889,3.107 -1.891,4.843 l 0,0 c 0.002,1.938 0.776,3.855 2.313,5.274 l 0,0 c 1.051,0.962 2.364,1.433 3.69,1.438 l 0,0 c 1.479,-0.005 2.934,-0.594 4.013,-1.766 l 0,0 c 0.727,-0.787 1.08,-1.769 1.082,-2.763 l 0,0 c -0.002,-1.107 -0.443,-2.202 -1.321,-3.011 l 0,0 c -0.226,-0.207 -0.473,-0.374 -0.735,-0.5 l 0,0 c 0.16,0.099 0.308,0.215 0.452,0.344 l 0,0 c 0.767,0.712 1.167,1.688 1.164,2.661 l 0,0 c 0.002,0.865 -0.313,1.755 -0.958,2.452 l 0,0 c -0.817,0.884 -1.946,1.346 -3.065,1.344 l 0,0 c -1.005,0.002 -2.025,-0.366 -2.824,-1.103 l 0,0 c -1.04,-0.956 -1.575,-2.276 -1.575,-3.585 l 0,0 c 0,-1.175 0.43,-2.366 1.286,-3.295 l 0,0 c 1.127,-1.231 2.689,-1.863 4.233,-1.86 l 0,0 c 1.384,0 2.79,0.505 3.885,1.519 l 0,0 c 1.465,1.344 2.214,3.193 2.211,5.034 l 0,0 c 0.003,1.65 -0.601,3.317 -1.803,4.628 l 0,0 c -1.61,1.752 -3.822,2.648 -6.027,2.648 l 0,0 c -0.009,0.006 -0.014,0.006 -0.017,0.006 l 0,0 z m 1.04,-8.392 c -0.016,0.016 -0.016,0.027 -0.016,0.041 l 0,0 c 0.002,0.019 0.002,0.024 0.021,0.042 l 0,0 c 0.372,0.341 0.513,0.844 0.41,1.307 l 0,0 c 0.075,-0.057 0.152,-0.121 0.218,-0.191 l 0,0 c 0.154,-0.172 0.223,-0.371 0.226,-0.586 l 0,0 c 0,-0.236 -0.092,-0.462 -0.278,-0.631 l 0,0 c -0.082,-0.073 -0.175,-0.111 -0.28,-0.111 l 0,0 c -0.116,-0.002 -0.217,0.04 -0.301,0.129 l 0,0 z"
   inkscape:connector-curvature="0"
   style="fill:#010101" />

		</g>

		<g
   id="g3027">
			<path
   id="path3029"
   d="m 300.55,275.097 c -0.554,-0.521 -0.578,-1.389 -0.058,-1.943 l 0,0 c 0.52,-0.554 1.393,-0.578 1.943,-0.056 l 0,0 c 2.481,2.347 5.651,3.503 8.817,3.505 l 0,0 c 3.414,-0.002 6.816,-1.349 9.349,-4.026 l 0,0 c 1.828,-1.94 2.726,-4.403 2.731,-6.871 l 0,0 c -0.006,-2.658 -1.055,-5.303 -3.135,-7.273 l 0,0 c -1.502,-1.417 -3.403,-2.11 -5.306,-2.11 l 0,0 c -2.063,0 -4.102,0.809 -5.624,2.424 l 0,0 c -1.086,1.145 -1.609,2.591 -1.612,4.048 l 0,0 c 0.003,1.573 0.618,3.131 1.854,4.303 l 0,0 c 0.86,0.815 1.949,1.207 3.054,1.212 l 0,0 c 1.186,-0.006 2.354,-0.471 3.233,-1.395 l 0,0 c 0.592,-0.629 0.885,-1.419 0.898,-2.223 l 0,0 c -0.092,0.648 -0.38,1.282 -0.863,1.795 l 0,0 c -0.736,0.771 -1.739,1.178 -2.73,1.175 l 0,0 c -0.925,0.002 -1.862,-0.341 -2.584,-1.025 l 0,0 c -0.907,-0.852 -1.373,-2.019 -1.37,-3.168 l 0,0 c -0.003,-1.075 0.4,-2.156 1.19,-2.992 l 0,0 c 1,-1.064 2.363,-1.604 3.715,-1.604 l 0,0 c 1.253,0 2.521,0.465 3.505,1.397 l 0,0 c 1.25,1.183 1.893,2.787 1.893,4.389 l 0,0 c 0.003,1.484 -0.549,2.978 -1.65,4.148 l 0,0 c -1.417,1.495 -3.328,2.258 -5.236,2.255 l 0,0 c -1.769,0.003 -3.554,-0.653 -4.945,-1.965 l 0,0 c -1.804,-1.701 -2.718,-4.011 -2.715,-6.303 l 0,0 c -0.003,-2.126 0.787,-4.273 2.365,-5.935 l 0,0 c 2.054,-2.186 4.847,-3.29 7.626,-3.287 l 0,0 c 2.577,-0.003 5.168,0.949 7.189,2.86 l 0,0 c 2.656,2.502 4,5.892 4,9.273 l 0,0 c 0,3.14 -1.161,6.298 -3.486,8.761 l 0,0 c -3.066,3.247 -7.206,4.889 -11.346,4.889 l 0,0 c -3.835,-0.001 -7.694,-1.412 -10.702,-4.258 l 0,0 z m 11.792,-12.722 c -0.296,0.31 -0.436,0.699 -0.438,1.097 l 0,0 c 0.003,0.427 0.167,0.846 0.506,1.172 l 0,0 c 0.198,0.18 0.44,0.271 0.693,0.274 l 0,0 c 0.271,-0.003 0.532,-0.105 0.733,-0.314 l 0,0 c 0.1,-0.105 0.147,-0.231 0.147,-0.368 l 0,0 c 0,-0.143 -0.059,-0.288 -0.166,-0.393 l 0,0 c -0.554,-0.524 -0.575,-1.397 -0.052,-1.943 l 0,0 c 0.105,-0.11 0.224,-0.199 0.351,-0.269 l 0,0 c -0.022,0 -0.041,-0.003 -0.063,-0.003 l 0,0 c -0.631,0.002 -1.243,0.247 -1.711,0.747 l 0,0 z"
   inkscape:connector-curvature="0"
   style="fill:#010101" />

			<path
   id="path3031"
   d="m 329.437,291.222 c -2.212,0.006 -4.43,-0.889 -6.04,-2.647 l 0,0 c -1.203,-1.309 -1.806,-2.975 -1.806,-4.629 l 0,0 c -0.006,-1.84 0.745,-3.693 2.21,-5.034 l 0,0 c 1.102,-1.013 2.505,-1.521 3.892,-1.519 l 0,0 c 1.546,-0.002 3.097,0.626 4.23,1.86 l 0,0 c 0.86,0.93 1.285,2.121 1.285,3.295 l 0,0 c 0,1.31 -0.537,2.626 -1.575,3.586 l 0,0 c -0.799,0.736 -1.82,1.102 -2.822,1.102 l 0,0 c -1.123,0 -2.253,-0.457 -3.069,-1.347 l 0,0 c -0.638,-0.691 -0.96,-1.578 -0.958,-2.451 l 0,0 c -0.002,-0.968 0.393,-1.954 1.167,-2.658 l 0,0 c 0.146,-0.129 0.293,-0.245 0.452,-0.344 l 0,0 c -0.264,0.124 -0.511,0.29 -0.739,0.502 l 0,0 c -0.88,0.809 -1.319,1.895 -1.319,3.007 l 0,0 c 0,0.989 0.354,1.973 1.086,2.767 l 0,0 c 1.074,1.169 2.531,1.757 4.012,1.757 l 0,0 c 1.32,0 2.638,-0.473 3.687,-1.432 l 0,0 c 1.537,-1.419 2.312,-3.339 2.313,-5.274 l 0,0 c -0.002,-1.736 -0.62,-3.464 -1.89,-4.843 l 0,0 c -1.838,-2 -4.33,-3.002 -6.841,-3.005 l 0,0 c -2.25,0 -4.499,0.81 -6.287,2.458 l 0,0 h 0.006 c -0.56,0.513 -1.433,0.478 -1.946,-0.081 l 0,0 c -0.517,-0.559 -0.483,-1.43 0.078,-1.946 l 0,0 c 2.309,-2.124 5.239,-3.183 8.149,-3.183 l 0,0 c 3.244,0 6.492,1.314 8.873,3.896 l 0,0 c 1.747,1.903 2.612,4.311 2.61,6.708 l 0,0 c 0.002,2.672 -1.084,5.341 -3.201,7.298 l 0,0 c -1.57,1.441 -3.564,2.161 -5.54,2.161 l 0,0 c -0.013,-0.004 -0.015,-0.004 -0.017,-0.004 l 0,0 z m -1.637,-8.405 c -0.178,0.164 -0.269,0.382 -0.271,0.624 l 0,0 c 0.003,0.212 0.073,0.414 0.231,0.589 l 0,0 c 0.066,0.069 0.142,0.137 0.217,0.19 l 0,0 c -0.099,-0.457 0.038,-0.954 0.404,-1.298 l 0,0 c 0.021,-0.022 0.023,-0.041 0.026,-0.054 l 0,0 c -0.003,-0.021 -0.005,-0.027 -0.016,-0.035 l 0,0 c -0.089,-0.099 -0.189,-0.135 -0.304,-0.138 l 0,0 c -0.096,0.006 -0.191,0.036 -0.287,0.122 l 0,0 z"
   inkscape:connector-curvature="0"
   style="fill:#010101" />

		</g>

		<path
   id="path3033"
   d="m 301.306,283.688 c -45.134,34.602 -39.307,45.792 -39.307,45.792 0,0 38.385,-46.138 77.235,-0.505 0,-0.001 7.211,-10.685 -37.928,-45.287 l 0,0 z"
   inkscape:connector-curvature="0"
   style="fill:#010101;stroke:#010101;stroke-width:0.45500001;stroke-linejoin:round" />

		<path
   id="path3035"
   d="m 363.673,362.498 c 0,0 36.65,64.938 13.418,102.435 -19.681,31.757 -62.618,7.604 -56.807,-17.445 0,0 5.368,26.839 31.755,25.049 0,0 28.53,-2.314 21.022,-36.68 -0.567,-2.597 -7.155,-23.708 -29.075,-26.393 0,-0.003 24.16,-1.344 19.687,-46.966 z"
   inkscape:connector-curvature="0"
   style="fill:#010101;stroke:#010101;stroke-width:0.45500001;stroke-linejoin:round" />

		<path
   id="path3037"
   d="m 239.29,362.498 c 0,0 -36.653,64.938 -13.419,102.435 19.677,31.757 63.754,10.423 56.804,-17.445 0,0 -5.366,26.839 -31.757,25.049 0,0 -28.531,-2.314 -21.022,-36.68 0.569,-2.597 7.159,-23.708 29.073,-26.393 -10e-4,-0.003 -24.153,-1.344 -19.679,-46.966 z"
   inkscape:connector-curvature="0"
   style="fill:#010101;stroke:#010101;stroke-width:0.45500001;stroke-linejoin:round" />

		<path
   id="path3039"
   d="m 301.62,331.188 c 0,0 2.687,34.306 21.47,27.151 0,0 -8.047,10.415 -2.235,22.944 0,0 -18.282,0.809 -18.729,12.437 h -0.573 c -0.444,-11.628 -19.739,-12.437 -19.739,-12.437 5.816,-12.529 -2.238,-22.944 -2.238,-22.944 18.786,7.155 21.473,-27.151 21.473,-27.151 h 0.571 z"
   inkscape:connector-curvature="0"
   style="fill:#010101;stroke:#010101;stroke-width:0.45500001;stroke-linejoin:round" />

		<circle
   id="circle3041"
   r="3.2720001"
   cy="376.202"
   cx="256.203"
   sodipodi:cx="256.203"
   sodipodi:cy="376.202"
   sodipodi:rx="3.2720001"
   sodipodi:ry="3.2720001"
   style="fill:#010101;stroke:#010101;stroke-width:0.45500001;stroke-linejoin:round"
   d="m 259.475,376.202 c 0,1.80707 -1.46492,3.272 -3.272,3.272 -1.80707,0 -3.272,-1.46493 -3.272,-3.272 0,-1.80708 1.46493,-3.272 3.272,-3.272 1.80708,0 3.272,1.46492 3.272,3.272 z" />

		<circle
   id="circle3043"
   r="3.2720001"
   cy="332.677"
   cx="277.77301"
   sodipodi:cx="277.77301"
   sodipodi:cy="332.677"
   sodipodi:rx="3.2720001"
   sodipodi:ry="3.2720001"
   style="fill:#010101;stroke:#010101;stroke-width:0.45500001;stroke-linejoin:round"
   d="m 281.04501,332.677 c 0,1.80708 -1.46492,3.272 -3.272,3.272 -1.80708,0 -3.272,-1.46492 -3.272,-3.272 0,-1.80707 1.46492,-3.272 3.272,-3.272 1.80708,0 3.272,1.46493 3.272,3.272 z" />

		<path
   id="path3045"
   d="m 324.37,329.53 c 1.806,0 3.273,1.467 3.273,3.276 0,1.809 -1.468,3.274 -3.273,3.274 -1.812,0 -3.276,-1.465 -3.276,-3.274 0,-1.809 1.465,-3.276 3.276,-3.276 z"
   inkscape:connector-curvature="0"
   style="fill:#010101;stroke:#010101;stroke-width:0.45500001;stroke-linejoin:round" />

		<circle
   id="circle3047"
   r="3.273"
   cy="376.07101"
   cx="346.18799"
   sodipodi:cx="346.18799"
   sodipodi:cy="376.07101"
   sodipodi:rx="3.273"
   sodipodi:ry="3.273"
   style="fill:#010101;stroke:#010101;stroke-width:0.45500001;stroke-linejoin:round"
   d="m 349.46099,376.07101 c 0,1.80763 -1.46537,3.273 -3.273,3.273 -1.80763,0 -3.273,-1.46537 -3.273,-3.273 0,-1.80762 1.46537,-3.273 3.273,-3.273 1.80763,0 3.273,1.46538 3.273,3.273 z" />

		<circle
   id="circle3049"
   r="3.2750001"
   cy="447.47299"
   cx="258.61401"
   sodipodi:cx="258.61401"
   sodipodi:cy="447.47299"
   sodipodi:rx="3.2750001"
   sodipodi:ry="3.2750001"
   style="fill:#010101;stroke:#010101;stroke-width:0.45500001;stroke-linejoin:round"
   d="m 261.88901,447.47299 c 0,1.80873 -1.46626,3.275 -3.275,3.275 -1.80873,0 -3.275,-1.46627 -3.275,-3.275 0,-1.80873 1.46627,-3.275 3.275,-3.275 1.80874,0 3.275,1.46627 3.275,3.275 z" />

		<path
   id="path3051"
   d="m 344.026,444.2 c 1.81,0 3.271,1.464 3.271,3.273 0,1.807 -1.462,3.271 -3.271,3.271 -1.809,0 -3.271,-1.465 -3.271,-3.271 10e-4,-1.809 1.463,-3.273 3.271,-3.273 z"
   inkscape:connector-curvature="0"
   style="fill:#010101;stroke:#010101;stroke-width:0.45500001;stroke-linejoin:round" />

		<circle
   id="circle3053"
   r="2.4890001"
   cy="407.35901"
   cx="278.54099"
   sodipodi:cx="278.54099"
   sodipodi:cy="407.35901"
   sodipodi:rx="2.4890001"
   sodipodi:ry="2.4890001"
   style="fill:#010101;stroke:#010101;stroke-width:0.34580001;stroke-linejoin:round"
   d="m 281.02999,407.35901 c 0,1.37464 -1.11437,2.489 -2.489,2.489 -1.37464,0 -2.489,-1.11436 -2.489,-2.489 0,-1.37464 1.11436,-2.489 2.489,-2.489 1.37463,0 2.489,1.11436 2.489,2.489 z" />

		<path
   id="path3055"
   d="m 324.384,405.048 c 1.373,0 2.485,1.112 2.485,2.489 0,1.373 -1.112,2.485 -2.485,2.485 -1.374,0 -2.489,-1.112 -2.489,-2.485 0,-1.377 1.115,-2.489 2.489,-2.489 z"
   inkscape:connector-curvature="0"
   style="fill:#010101;stroke:#010101;stroke-width:0.34580001;stroke-linejoin:round" />

		<circle
   id="circle3057"
   r="3.2950001"
   cy="385.254"
   cx="277.94101"
   sodipodi:cx="277.94101"
   sodipodi:cy="385.254"
   sodipodi:rx="3.2950001"
   sodipodi:ry="3.2950001"
   style="fill:#010101;stroke:#010101;stroke-width:0.34580001;stroke-linejoin:round"
   d="m 281.23601,385.254 c 0,1.81978 -1.47522,3.295 -3.295,3.295 -1.81978,0 -3.295,-1.47522 -3.295,-3.295 0,-1.81978 1.47522,-3.295 3.295,-3.295 1.81978,0 3.295,1.47522 3.295,3.295 z" />

		<path
   id="path3059"
   d="m 324.682,381.958 c 1.822,0 3.295,1.476 3.295,3.295 0,1.819 -1.473,3.295 -3.295,3.295 -1.816,0 -3.295,-1.476 -3.295,-3.295 0,-1.819 1.478,-3.295 3.295,-3.295 z"
   inkscape:connector-curvature="0"
   style="fill:#010101;stroke:#010101;stroke-width:0.34580001;stroke-linejoin:round" />

		<circle
   id="circle3061"
   r="2.5050001"
   cy="398.44901"
   cx="301.57599"
   sodipodi:cx="301.57599"
   sodipodi:cy="398.44901"
   sodipodi:rx="2.5050001"
   sodipodi:ry="2.5050001"
   style="fill:#010101;stroke:#010101;stroke-width:0.26280001;stroke-linejoin:round"
   d="m 304.08099,398.44901 c 0,1.38347 -1.12153,2.505 -2.505,2.505 -1.38347,0 -2.505,-1.12153 -2.505,-2.505 0,-1.38348 1.12153,-2.505 2.505,-2.505 1.38347,0 2.505,1.12152 2.505,2.505 z" />

		<path
   id="path3063"
   d="m 275.678,354.109 c 1.381,0 2.502,1.118 2.502,2.5 0,1.384 -1.121,2.503 -2.502,2.503 -1.382,0 -2.501,-1.119 -2.501,-2.503 0,-1.382 1.119,-2.5 2.501,-2.5 z"
   inkscape:connector-curvature="0"
   style="fill:#010101;stroke:#010101;stroke-width:0.26280001;stroke-linejoin:round" />

		<circle
   id="circle3065"
   r="2.5050001"
   cy="356.229"
   cx="327.32101"
   sodipodi:cx="327.32101"
   sodipodi:cy="356.229"
   sodipodi:rx="2.5050001"
   sodipodi:ry="2.5050001"
   style="fill:#010101;stroke:#010101;stroke-width:0.26280001;stroke-linejoin:round"
   d="m 329.82601,356.229 c 0,1.38348 -1.12152,2.505 -2.505,2.505 -1.38347,0 -2.505,-1.12152 -2.505,-2.505 0,-1.38347 1.12153,-2.505 2.505,-2.505 1.38348,0 2.505,1.12153 2.505,2.505 z" />

		<circle
   id="circle3067"
   r="5.8439999"
   cy="322.87201"
   cx="300.74399"
   sodipodi:cx="300.74399"
   sodipodi:cy="322.87201"
   sodipodi:rx="5.8439999"
   sodipodi:ry="5.8439999"
   style="fill:#010101;stroke:#010101;stroke-width:0.26280001;stroke-linejoin:round"
   d="m 306.58799,322.87201 c 0,3.22755 -2.61645,5.844 -5.844,5.844 -3.22755,0 -5.844,-2.61645 -5.844,-5.844 0,-3.22755 2.61645,-5.844 5.844,-5.844 3.22755,0 5.844,2.61645 5.844,5.844 z" />

		<g
   id="g3069">
			<path
   id="path3071"
   d="m 209.554,372.236 c -4.935,-2.024 -7.925,-6.788 -7.922,-11.811 l 0,0 c 0,-1.61 0.302,-3.253 0.953,-4.826 l 0,0 c 1.662,-4.059 5.573,-6.518 9.7,-6.515 l 0,0 c 1.324,0 2.671,0.253 3.968,0.785 l 0,0 c 3.352,1.371 5.381,4.602 5.378,8.013 l 0,0 c 0,1.094 -0.209,2.207 -0.645,3.279 l 0,0 c -1.141,2.788 -3.833,4.475 -6.671,4.473 l 0,0 c -0.912,0.002 -1.836,-0.172 -2.724,-0.535 l 0,0 c -2.337,-0.959 -3.752,-3.212 -3.75,-5.588 l 0,0 c -0.002,-0.758 0.147,-1.543 0.452,-2.283 l 0,0 c 0.809,-1.975 2.71,-3.177 4.726,-3.174 l 0,0 c 0.645,0 1.302,0.121 1.932,0.384 l 0,0 c 1.686,0.693 2.708,2.32 2.706,4.035 l 0,0 c 0,0.545 -0.104,1.107 -0.324,1.653 l 0,0 c -0.601,1.454 -2.004,2.339 -3.483,2.333 l 0,0 c -0.478,0 -0.963,-0.089 -1.426,-0.28 l 0,0 c -0.646,-0.266 -1.166,-0.717 -1.518,-1.266 l 0,0 c 0.334,0.718 0.933,1.317 1.723,1.643 l 0,0 c 0.553,0.226 1.123,0.333 1.684,0.333 l 0,0 c 1.756,-0.003 3.419,-1.043 4.123,-2.763 l 0,0 c 0.297,-0.739 0.441,-1.495 0.443,-2.239 l 0,0 c -0.002,-2.33 -1.384,-4.532 -3.671,-5.464 l 0,0 c -0.964,-0.4 -1.949,-0.581 -2.926,-0.581 l 0,0 c -3.042,0.002 -5.929,1.812 -7.157,4.809 l 0,0 c -0.509,1.236 -0.745,2.516 -0.745,3.779 l 0,0 c 0.002,3.94 2.345,7.68 6.217,9.265 l 0,0 c 1.594,0.647 3.244,0.957 4.861,0.957 l 0,0 c 5.067,0 9.868,-3.01 11.899,-7.98 l 0,0 c 0.287,-0.707 1.09,-1.043 1.795,-0.752 l 0,0 c 0.701,0.288 1.04,1.091 0.751,1.793 l 0,0 c -2.471,6.039 -8.299,9.695 -14.448,9.695 l 0,0 c -1.965,-0.008 -3.968,-0.385 -5.901,-1.172 l 0,0 z m 2.882,-15.093 c 0.699,0.296 1.029,1.103 0.735,1.801 l 0,0 c -0.022,0.056 -0.036,0.115 -0.036,0.188 l 0,0 c 0,0.208 0.127,0.41 0.333,0.496 l 0,0 c 0.124,0.05 0.257,0.075 0.382,0.075 l 0,0 c 0.397,-0.003 0.78,-0.239 0.933,-0.621 l 0,0 c 0.086,-0.209 0.124,-0.417 0.124,-0.616 l 0,0 c -0.002,-0.634 -0.376,-1.233 -0.999,-1.485 l 0,0 c -0.294,-0.125 -0.591,-0.181 -0.889,-0.181 l 0,0 c -0.355,0.003 -0.708,0.084 -1.023,0.237 l 0,0 c 0.148,0.012 0.297,0.05 0.44,0.106 l 0,0 z"
   inkscape:connector-curvature="0"
   style="fill:#010101" />

			<path
   id="path3073"
   d="m 206.868,391.054 c -0.854,0 -1.718,-0.134 -2.566,-0.414 l 0,0 c -4.174,-1.376 -6.821,-5.247 -6.816,-9.416 l 0,0 c 0,-1.03 0.161,-2.07 0.497,-3.097 l 0,0 c 1.668,-5.067 6.377,-8.284 11.44,-8.281 l 0,0 c 1.25,0 2.522,0.196 3.771,0.607 l 0,0 c 0.724,0.242 1.113,1.019 0.874,1.739 l 0,0 c -0.237,0.723 -1.017,1.113 -1.738,0.876 l 0,0 c -0.967,-0.32 -1.942,-0.47 -2.908,-0.47 l 0,0 c -3.9,0 -7.54,2.476 -8.822,6.391 l 0,0 c -0.247,0.745 -0.364,1.498 -0.367,2.234 l 0,0 c 0.003,3.007 1.912,5.811 4.927,6.803 l 0,0 c 0.567,0.185 1.137,0.277 1.704,0.277 l 0,0 c 2.285,0 4.423,-1.457 5.18,-3.752 l 0,0 c 0.142,-0.422 0.202,-0.852 0.202,-1.277 l 0,0 c 0,-1.715 -1.09,-3.317 -2.808,-3.878 l 0,0 c -0.286,-0.094 -0.569,-0.14 -0.853,-0.148 l 0,0 c 0.176,0.024 0.354,0.065 0.525,0.124 l 0,0 c 1.522,0.505 2.486,1.912 2.486,3.433 l 0,0 c 0,0.374 -0.058,0.753 -0.185,1.132 l 0,0 c -0.581,1.752 -2.204,2.868 -3.96,2.865 l 0,0 c -0.432,0 -0.873,-0.067 -1.304,-0.21 l 0,0 c -2.05,-0.674 -3.353,-2.58 -3.351,-4.625 l 0,0 c -0.002,-0.51 0.077,-1.021 0.242,-1.521 l 0,0 c 0.798,-2.422 3.042,-3.957 5.459,-3.954 l 0,0 c 0.597,-0.003 1.205,0.094 1.796,0.285 l 0,0 c 2.874,0.955 4.701,3.618 4.699,6.494 l 0,0 c 0.002,0.707 -0.107,1.43 -0.341,2.14 l 0,0 c -1.141,3.448 -4.342,5.642 -7.788,5.642 l 0,0 c 0.007,10e-4 0.005,10e-4 0.005,10e-4 l 0,0 z m 0.863,-8.803 -0.003,0.014 c 0.003,0.016 0.014,0.049 0.044,0.057 l 0,0 c 0.481,0.161 0.815,0.559 0.914,1.021 l 0,0 c 0.05,-0.084 0.088,-0.175 0.122,-0.272 l 0,0 c 0.027,-0.091 0.044,-0.18 0.044,-0.271 l 0,0 c 0,-0.361 -0.233,-0.702 -0.595,-0.817 l 0,0 c -0.048,-0.013 -0.087,-0.019 -0.132,-0.021 l 0,0 c -0.173,0.004 -0.333,0.109 -0.394,0.289 l 0,0 z"
   inkscape:connector-curvature="0"
   style="fill:#010101" />

		</g>

		<g
   id="g3075">
			<path
   id="path3077"
   d="m 372.903,363.704 0,0 c -0.285,-0.701 0.048,-1.507 0.752,-1.79 l 0,0 c 0.699,-0.287 1.506,0.046 1.79,0.748 l 0,0 c 2.035,4.978 6.833,7.983 11.897,7.985 l 0,0 c 1.62,-0.002 3.263,-0.309 4.865,-0.961 l 0,0 c 3.868,-1.583 6.209,-5.325 6.214,-9.263 l 0,0 c -0.005,-1.261 -0.241,-2.543 -0.746,-3.782 l 0,0 c -1.224,-2.995 -4.113,-4.804 -7.162,-4.806 l 0,0 c -0.975,0 -1.962,0.182 -2.924,0.581 l 0,0 c -2.287,0.933 -3.669,3.136 -3.672,5.467 l 0,0 c 0,0.744 0.14,1.497 0.443,2.236 l 0,0 c 0.704,1.723 2.369,2.763 4.121,2.765 l 0,0 c 0.559,-0.002 1.129,-0.107 1.683,-0.33 l 0,0 c 0.787,-0.326 1.382,-0.919 1.72,-1.634 l 0,0 c -0.349,0.543 -0.867,0.992 -1.519,1.258 l 0,0 c -0.459,0.185 -0.94,0.279 -1.422,0.277 l 0,0 c -1.479,0.002 -2.881,-0.876 -3.479,-2.331 l 0,0 c -0.226,-0.543 -0.327,-1.113 -0.327,-1.656 l 0,0 c 0,-1.72 1.021,-3.344 2.701,-4.037 l 0,0 c 0.632,-0.261 1.293,-0.382 1.938,-0.382 l 0,0 c 2.011,-0.003 3.916,1.202 4.73,3.18 l 0,0 c 0.299,0.74 0.446,1.513 0.446,2.277 l 0,0 c 0,2.376 -1.412,4.628 -3.753,5.591 l 0,0 c -0.887,0.363 -1.812,0.535 -2.72,0.535 l 0,0 c -2.838,0.003 -5.526,-1.688 -6.666,-4.47 l 0,0 c -0.446,-1.075 -0.653,-2.191 -0.65,-3.282 l 0,0 c -0.003,-3.414 2.026,-6.645 5.376,-8.013 l 0,0 c 1.296,-0.535 2.647,-0.788 3.967,-0.788 l 0,0 c 4.135,-0.003 8.043,2.459 9.706,6.516 l 0,0 c 0.638,1.575 0.949,3.214 0.949,4.825 l 0,0 c 0.006,5.024 -2.989,9.787 -7.927,11.811 l 0,0 c -1.933,0.79 -3.935,1.167 -5.905,1.167 l 0,0 c -6.131,0.004 -11.953,-3.654 -14.426,-9.694 l 0,0 z m 15.999,-6.722 c -0.627,0.255 -0.995,0.857 -1,1.489 l 0,0 c 0,0.202 0.037,0.401 0.117,0.61 l 0,0 c 0.164,0.387 0.543,0.623 0.938,0.623 l 0,0 c 0.124,0 0.253,-0.021 0.384,-0.069 l 0,0 c 0.205,-0.084 0.328,-0.288 0.331,-0.5 l 0,0 c 0,-0.064 -0.011,-0.134 -0.04,-0.199 l 0,0 c -0.285,-0.707 0.054,-1.505 0.758,-1.793 l 0,0 c 0.141,-0.056 0.282,-0.088 0.422,-0.099 l 0,0 c -0.317,-0.153 -0.666,-0.234 -1.023,-0.234 l 0,0 c -0.296,-0.005 -0.598,0.054 -0.887,0.172 l 0,0 z"
   inkscape:connector-curvature="0"
   style="fill:#010101" />

			<path
   id="path3079"
   d="m 388.149,385.415 c -0.236,-0.712 -0.348,-1.435 -0.348,-2.143 l 0,0 c 0,-2.873 1.826,-5.545 4.702,-6.494 l 0,0 c 0.594,-0.191 1.198,-0.285 1.795,-0.285 l 0,0 c 2.414,0 4.658,1.532 5.459,3.954 l 0,0 c 0.17,0.507 0.245,1.019 0.245,1.521 l 0,0 c 0,2.048 -1.304,3.948 -3.353,4.628 l 0,0 c -0.432,0.14 -0.873,0.21 -1.309,0.21 l 0,0 c -1.755,0 -3.381,-1.116 -3.956,-2.86 l 0,0 c -0.127,-0.374 -0.188,-0.761 -0.188,-1.14 l 0,0 c 0,-1.519 0.965,-2.932 2.48,-3.43 l 0,0 c 0.181,-0.059 0.366,-0.102 0.549,-0.129 l 0,0 c -0.288,0.006 -0.578,0.054 -0.865,0.151 l 0,0 c -1.721,0.562 -2.81,2.164 -2.81,3.878 l 0,0 c 0,0.425 0.065,0.853 0.204,1.28 l 0,0 c 0.753,2.295 2.888,3.749 5.178,3.749 l 0,0 c 0.564,0 1.14,-0.086 1.704,-0.274 l 0,0 c 3.016,-0.992 4.925,-3.801 4.925,-6.805 l 0,0 c 0,-0.74 -0.114,-1.495 -0.361,-2.234 l 0,0 c -1.287,-3.916 -4.924,-6.392 -8.821,-6.392 l 0,0 c -0.968,0 -1.941,0.151 -2.911,0.471 l 0,0 h 0.003 c -0.726,0.236 -1.503,-0.153 -1.739,-0.876 l 0,0 c -0.239,-0.723 0.152,-1.498 0.874,-1.74 l 0,0 c 1.247,-0.408 2.521,-0.607 3.768,-0.607 l 0,0 c 5.064,0 9.769,3.215 11.44,8.282 l 0,0 c 0.339,1.026 0.5,2.07 0.494,3.097 l 0,0 c 0.006,4.166 -2.645,8.04 -6.812,9.418 l 0,0 c -0.85,0.282 -1.715,0.409 -2.569,0.409 l 0,0 c -3.44,0 -6.644,-2.19 -7.778,-5.639 l 0,0 z m 6.397,-3.427 c -0.364,0.116 -0.591,0.451 -0.591,0.814 l 0,0 c 0,0.083 0.011,0.172 0.048,0.271 l 0,0 c 0.03,0.094 0.07,0.185 0.119,0.269 l 0,0 c 0.097,-0.46 0.43,-0.86 0.908,-1.017 l 0,0 c 0.024,-0.005 0.043,-0.045 0.043,-0.059 l 0,0 c 0,0 -0.003,-0.016 0,-0.01 l 0,0 c -0.06,-0.181 -0.226,-0.285 -0.397,-0.288 l 0,0 c -0.038,-0.005 -0.076,10e-4 -0.13,0.02 l 0,0 z"
   inkscape:connector-curvature="0"
   style="fill:#010101" />

		</g>

		<polygon
   id="polygon3081"
   points="308.845,513.839 293.159,513.836 301.007,478.447 "
   style="fill:#010101;stroke:#010101;stroke-width:0.1007;stroke-linecap:round;stroke-linejoin:round" />

		<polygon
   id="polygon3083"
   points="305.323,443.708 297.483,443.705 301.411,426.011 "
   style="fill:#010101;stroke:#010101;stroke-width:0.0503;stroke-linecap:round;stroke-linejoin:round" />

		<polygon
   id="polygon3085"
   points="243.513,343.529 247.728,336.92 260.545,349.73 "
   style="fill:#010101;stroke:#010101;stroke-width:0.0503;stroke-linecap:round;stroke-linejoin:round" />

		<polygon
   id="polygon3087"
   points="359.232,343.378 355.021,336.764 342.202,349.577 "
   style="fill:#010101;stroke:#010101;stroke-width:0.0503;stroke-linecap:round;stroke-linejoin:round" />

		<polygon
   id="polygon3089"
   points="252.899,361.138 257.11,354.522 269.929,367.336 "
   style="fill:#010101;stroke:#010101;stroke-width:0.0503;stroke-linecap:round;stroke-linejoin:round" />

		<polygon
   id="polygon3091"
   points="350.099,361.138 345.89,354.522 333.068,367.336 "
   style="fill:#010101;stroke:#010101;stroke-width:0.0503;stroke-linecap:round;stroke-linejoin:round" />

		<polygon
   id="polygon3093"
   points="311.07,427.564 318.112,424.119 306.808,409.947 "
   style="fill:#010101;stroke:#010101;stroke-width:0.0503;stroke-linecap:round;stroke-linejoin:round" />

		<polygon
   id="polygon3095"
   points="292.088,427.621 285.048,424.175 296.35,409.999 "
   style="fill:#010101;stroke:#010101;stroke-width:0.0503;stroke-linecap:round;stroke-linejoin:round" />

		<polygon
   id="polygon3097"
   points="259.759,424.405 263.714,431.178 246.462,436.722 "
   style="fill:#010101;stroke:#010101;stroke-width:0.0503;stroke-linecap:round;stroke-linejoin:round" />

		<polygon
   id="polygon3099"
   points="343.497,424.756 339.54,431.526 356.797,437.072 "
   style="fill:#010101;stroke:#010101;stroke-width:0.0503;stroke-linecap:round;stroke-linejoin:round" />

		
			<rect
   id="rect3101"
   height="10.01"
   width="10.015"
   y="464.918"
   x="296.453"
   style="fill:#010101;stroke:#010101;stroke-width:0.0244;stroke-linecap:round;stroke-linejoin:round" />

		<circle
   id="circle3103"
   r="1.876"
   cy="272.146"
   cx="301.077"
   sodipodi:cx="301.077"
   sodipodi:cy="272.146"
   sodipodi:rx="1.876"
   sodipodi:ry="1.876"
   style="fill:#010101;stroke:#010101;stroke-width:0.1971;stroke-linejoin:round"
   d="m 302.953,272.146 c 0,1.03608 -0.83992,1.876 -1.876,1.876 -1.03609,0 -1.876,-0.83992 -1.876,-1.876 0,-1.03609 0.83991,-1.876 1.876,-1.876 1.03608,0 1.876,0.83991 1.876,1.876 z" />

		<polygon
   id="polygon3105"
   points="258.564,414.762 261.242,412.815 263.917,414.762 262.896,417.907 259.588,417.907 "
   style="fill:#010101;stroke:#010101;stroke-width:0.0246;stroke-linejoin:round" />

		<polygon
   id="polygon3107"
   points="250.518,416.619 253.196,414.673 255.875,416.619 254.853,419.764 251.542,419.764 "
   style="fill:#010101;stroke:#010101;stroke-width:0.0246;stroke-linejoin:round" />

		<polygon
   id="polygon3109"
   points="242.911,420.575 245.586,418.63 248.264,420.575 247.243,423.727 243.936,423.727 "
   style="fill:#010101;stroke:#010101;stroke-width:0.0246;stroke-linejoin:round" />

		<polygon
   id="polygon3111"
   points="343.548,414.316 340.869,412.37 338.194,414.316 339.215,417.461 342.524,417.461 "
   style="fill:#010101;stroke:#010101;stroke-width:0.0246;stroke-linejoin:round" />

		<polygon
   id="polygon3113"
   points="351.594,416.17 348.916,414.224 346.239,416.17 347.261,419.318 350.569,419.318 "
   style="fill:#010101;stroke:#010101;stroke-width:0.0246;stroke-linejoin:round" />

		<polygon
   id="polygon3115"
   points="359.206,420.127 356.525,418.181 353.846,420.127 354.867,423.277 358.179,423.277 "
   style="fill:#010101;stroke:#010101;stroke-width:0.0246;stroke-linejoin:round" />

		<circle
   id="circle3117"
   r="1.877"
   cy="275.78699"
   cx="290.93799"
   sodipodi:cx="290.93799"
   sodipodi:cy="275.78699"
   sodipodi:rx="1.877"
   sodipodi:ry="1.877"
   style="fill:#010101;stroke:#010101;stroke-width:0.1971;stroke-linejoin:round"
   d="m 292.81499,275.78699 c 0,1.03664 -0.84036,1.877 -1.877,1.877 -1.03664,0 -1.877,-0.84036 -1.877,-1.877 0,-1.03664 0.84036,-1.877 1.877,-1.877 1.03664,0 1.877,0.84036 1.877,1.877 z" />

		<path
   id="path3119"
   d="m 311.336,273.848 c 1.035,0 1.879,0.838 1.879,1.876 0,1.038 -0.844,1.878 -1.879,1.878 -1.034,0 -1.878,-0.841 -1.878,-1.878 0,-1.038 0.844,-1.876 1.878,-1.876 z"
   inkscape:connector-curvature="0"
   style="fill:#010101;stroke:#010101;stroke-width:0.1971;stroke-linejoin:round" />

		<circle
   id="circle3121"
   r="1.8789999"
   cy="370.099"
   cx="215.739"
   sodipodi:cx="215.739"
   sodipodi:cy="370.099"
   sodipodi:rx="1.8789999"
   sodipodi:ry="1.8789999"
   style="fill:#010101;stroke:#010101;stroke-width:0.1971;stroke-linejoin:round"
   d="m 217.618,370.099 c 0,1.03774 -0.84126,1.879 -1.879,1.879 -1.03774,0 -1.879,-0.84126 -1.879,-1.879 0,-1.03774 0.84126,-1.879 1.879,-1.879 1.03774,0 1.879,0.84126 1.879,1.879 z" />

		<circle
   id="circle3123"
   r="1.881"
   cy="369.84299"
   cx="387.82101"
   sodipodi:cx="387.82101"
   sodipodi:cy="369.84299"
   sodipodi:rx="1.881"
   sodipodi:ry="1.881"
   style="fill:#010101;stroke:#010101;stroke-width:0.1971;stroke-linejoin:round"
   d="m 389.70201,369.84299 c 0,1.03884 -0.84215,1.881 -1.881,1.881 -1.03884,0 -1.881,-0.84216 -1.881,-1.881 0,-1.03885 0.84216,-1.881 1.881,-1.881 1.03885,0 1.881,0.84215 1.881,1.881 z" />

		<circle
   id="circle3125"
   r="1.88"
   cy="530.591"
   cx="266.60901"
   sodipodi:cx="266.60901"
   sodipodi:cy="530.591"
   sodipodi:rx="1.88"
   sodipodi:ry="1.88"
   style="fill:#010101;stroke:#010101;stroke-width:0.1971;stroke-linejoin:round"
   d="m 268.48901,530.591 c 0,1.0383 -0.84171,1.88 -1.88,1.88 -1.0383,0 -1.88,-0.8417 -1.88,-1.88 0,-1.03829 0.8417,-1.88 1.88,-1.88 1.03829,0 1.88,0.84171 1.88,1.88 z" />

		<circle
   id="circle3127"
   r="1.877"
   cy="530.62097"
   cx="336.83099"
   sodipodi:cx="336.83099"
   sodipodi:cy="530.62097"
   sodipodi:rx="1.877"
   sodipodi:ry="1.877"
   style="fill:#010101;stroke:#010101;stroke-width:0.1971;stroke-linejoin:round"
   d="m 338.70799,530.62097 c 0,1.03664 -0.84036,1.877 -1.877,1.877 -1.03663,0 -1.877,-0.84036 -1.877,-1.877 0,-1.03664 0.84037,-1.877 1.877,-1.877 1.03664,0 1.877,0.84036 1.877,1.877 z" />

		<polygon
   id="polygon3129"
   points="285.965,520.375 289.868,513.621 293.768,520.375 "
   style="fill:#010101;stroke:#010101;stroke-width:0.0394;stroke-linejoin:round" />

		<polygon
   id="polygon3131"
   points="308.952,520.316 312.853,513.559 316.758,520.316 "
   style="fill:#010101;stroke:#010101;stroke-width:0.0394;stroke-linejoin:round" />

		<polygon
   id="polygon3133"
   points="286.354,315.854 290.257,322.612 294.158,315.854 "
   style="fill:#010101;stroke:#010101;stroke-width:0.0394;stroke-linejoin:round" />

		<polygon
   id="polygon3135"
   points="307.629,316.185 311.532,322.942 315.436,316.185 "
   style="fill:#010101;stroke:#010101;stroke-width:0.0394;stroke-linejoin:round" />

		<polygon
   id="polygon3137"
   points="334.783,370.973 329.88,372.362 335.477,382.729 "
   style="fill:#010101;stroke:#010101;stroke-width:0.0327;stroke-linecap:round;stroke-linejoin:round" />

		<polygon
   id="polygon3139"
   points="340.181,384.861 340.925,389.904 351.935,385.706 "
   style="fill:#010101;stroke:#010101;stroke-width:0.0327;stroke-linecap:round;stroke-linejoin:round" />

		<polygon
   id="polygon3141"
   points="267.507,370.973 272.408,372.362 266.813,382.729 "
   style="fill:#010101;stroke:#010101;stroke-width:0.0327;stroke-linecap:round;stroke-linejoin:round" />

		<polygon
   id="polygon3143"
   points="261.583,384.861 260.839,389.904 249.833,385.706 "
   style="fill:#010101;stroke:#010101;stroke-width:0.0327;stroke-linecap:round;stroke-linejoin:round" />

		<polygon
   id="polygon3145"
   points="270.854,343.263 271.597,348.305 282.606,344.11 "
   style="fill:#010101;stroke:#010101;stroke-width:0.0327;stroke-linecap:round;stroke-linejoin:round" />

		<polygon
   id="polygon3147"
   points="252.962,455.986 253.706,461.026 264.715,456.83 "
   style="fill:#010101;stroke:#010101;stroke-width:0.0327;stroke-linecap:round;stroke-linejoin:round" />

		<polygon
   id="polygon3149"
   points="247.114,442.544 242.215,443.934 247.81,454.304 "
   style="fill:#010101;stroke:#010101;stroke-width:0.0327;stroke-linecap:round;stroke-linejoin:round" />

		<polygon
   id="polygon3151"
   points="355.623,440.751 360.522,442.144 354.927,452.52 "
   style="fill:#010101;stroke:#010101;stroke-width:0.0327;stroke-linecap:round;stroke-linejoin:round" />

		<polygon
   id="polygon3153"
   points="351.485,456.433 350.744,461.475 339.734,457.279 "
   style="fill:#010101;stroke:#010101;stroke-width:0.0327;stroke-linecap:round;stroke-linejoin:round" />

		<polygon
   id="polygon3155"
   points="330.912,343.263 330.171,348.305 319.166,344.11 "
   style="fill:#010101;stroke:#010101;stroke-width:0.0327;stroke-linecap:round;stroke-linejoin:round" />

		<polygon
   id="polygon3157"
   points="291.221,406.491 295.537,403.776 287.247,395.403 "
   style="fill:#010101;stroke:#010101;stroke-width:0.0327;stroke-linecap:round;stroke-linejoin:round" />

		<polygon
   id="polygon3159"
   points="312.137,406.88 307.823,404.161 316.112,395.788 "
   style="fill:#010101;stroke:#010101;stroke-width:0.0327;stroke-linecap:round;stroke-linejoin:round" />

		<circle
   id="circle3161"
   r="5.8439999"
   cy="436.81601"
   cx="278.25699"
   sodipodi:cx="278.25699"
   sodipodi:cy="436.81601"
   sodipodi:rx="5.8439999"
   sodipodi:ry="5.8439999"
   style="fill:#010101;stroke:#010101;stroke-width:0.26280001;stroke-linejoin:round"
   d="m 284.10099,436.81601 c 0,3.22755 -2.61645,5.844 -5.844,5.844 -3.22755,0 -5.844,-2.61645 -5.844,-5.844 0,-3.22755 2.61645,-5.844 5.844,-5.844 3.22755,0 5.844,2.61645 5.844,5.844 z" />

		<circle
   id="circle3163"
   r="5.8439999"
   cy="437.21701"
   cx="323.37299"
   sodipodi:cx="323.37299"
   sodipodi:cy="437.21701"
   sodipodi:rx="5.8439999"
   sodipodi:ry="5.8439999"
   style="fill:#010101;stroke:#010101;stroke-width:0.26280001;stroke-linejoin:round"
   d="m 329.21699,437.21701 c 0,3.22755 -2.61645,5.844 -5.844,5.844 -3.22756,0 -5.844,-2.61645 -5.844,-5.844 0,-3.22755 2.61644,-5.844 5.844,-5.844 3.22755,0 5.844,2.61645 5.844,5.844 z" />

		<circle
   id="circle3165"
   r="3.2939999"
   cy="399.62701"
   cx="256.896"
   sodipodi:cx="256.896"
   sodipodi:cy="399.62701"
   sodipodi:rx="3.2939999"
   sodipodi:ry="3.2939999"
   style="fill:#010101;stroke:#010101;stroke-width:0.34580001;stroke-linejoin:round"
   d="m 260.19,399.62701 c 0,1.81923 -1.47478,3.294 -3.294,3.294 -1.81923,0 -3.294,-1.47477 -3.294,-3.294 0,-1.81922 1.47477,-3.294 3.294,-3.294 1.81922,0 3.294,1.47478 3.294,3.294 z" />

		<circle
   id="circle3167"
   r="3.2939999"
   cy="399.62701"
   cx="347.483"
   sodipodi:cx="347.483"
   sodipodi:cy="399.62701"
   sodipodi:rx="3.2939999"
   sodipodi:ry="3.2939999"
   style="fill:#010101;stroke:#010101;stroke-width:0.34580001;stroke-linejoin:round"
   d="m 350.777,399.62701 c 0,1.81923 -1.47477,3.294 -3.294,3.294 -1.81922,0 -3.294,-1.47477 -3.294,-3.294 0,-1.81922 1.47478,-3.294 3.294,-3.294 1.81923,0 3.294,1.47478 3.294,3.294 z" />

	</g>

</g>
  </g>
</svg>
