<?xml version="1.0" encoding="UTF-8" standalone="no"?>
<!-- Created with Inkscape (http://www.inkscape.org/) -->

<svg
   xmlns:dc="http://purl.org/dc/elements/1.1/"
   xmlns:cc="http://creativecommons.org/ns#"
   xmlns:rdf="http://www.w3.org/1999/02/22-rdf-syntax-ns#"
   xmlns:svg="http://www.w3.org/2000/svg"
   xmlns="http://www.w3.org/2000/svg"
   xmlns:sodipodi="http://sodipodi.sourceforge.net/DTD/sodipodi-0.dtd"
   xmlns:inkscape="http://www.inkscape.org/namespaces/inkscape"
   width="744.09448819"
   height="1052.3622047"
   id="svg16195"
   version="1.1"
   inkscape:version="0.48.4 r9939"
   sodipodi:docname="Новый документ 18">
  <defs
     id="defs16197" />
  <sodipodi:namedview
     id="base"
     pagecolor="#ffffff"
     bordercolor="#666666"
     borderopacity="1.0"
     inkscape:pageopacity="0.0"
     inkscape:pageshadow="2"
     inkscape:zoom="0.35"
     inkscape:cx="375"
     inkscape:cy="520"
     inkscape:document-units="px"
     inkscape:current-layer="layer1"
     showgrid="false"
     inkscape:window-width="1600"
     inkscape:window-height="838"
     inkscape:window-x="-8"
     inkscape:window-y="-8"
     inkscape:window-maximized="1" />
  <metadata
     id="metadata16200">
    <rdf:RDF>
      <cc:Work
         rdf:about="">
        <dc:format>image/svg+xml</dc:format>
        <dc:type
           rdf:resource="http://purl.org/dc/dcmitype/StillImage" />
        <dc:title></dc:title>
      </cc:Work>
    </rdf:RDF>
  </metadata>
  <g
     inkscape:label="Layer 1"
     inkscape:groupmode="layer"
     id="layer1">
    <g
       id="g16245"
       transform="matrix(3.6240887,0,0,3.6240887,75.570677,86.345209)">
      <g
         style="fill-rule:nonzero;stroke:#000000;stroke-miterlimit:4"
         id="Layer_x0020_1">
		<path
   id="path5"
   d="m 166.83691,235.54785 c 0,3.77735 -3.08691,6.86914 -6.87109,6.86914 H 7.1108398 C 3.3359375,242.41699 0.25,239.3252 0.25,235.54785 V 7.1201172 C 0.25,3.3427734 3.3359375,0.25 7.1108398,0.25 H 159.96582 c 3.78418,0 6.87109,3.0927734 6.87109,6.8701172 V 235.54785 z"
   style="fill:#ffffff;stroke-width:0.5"
   inkscape:connector-curvature="0" />

		<g
   id="g7"
   style="stroke:none">
			<g
   id="g9">
				
			</g>

			
		</g>

		<g
   id="g15">
			
		</g>

		<g
   id="g19">
			
		</g>

		<g
   id="g23"
   style="stroke:none">
			<g
   id="g25">
				
			</g>

			
		</g>

		<g
   id="g31"
   style="stroke:none">
			<g
   id="g33">
				
			</g>

			
		</g>

	</g>
      <text
         sodipodi:linespacing="125%"
         id="text3788"
         y="27.355848"
         x="3.9446316"
         style="font-size:32px;font-style:normal;font-weight:normal;line-height:125%;letter-spacing:0px;word-spacing:0px;fill:#000000;fill-opacity:1;stroke:none;font-family:Bitstream Vera Sans"
         xml:space="preserve"><tspan
           style="font-style:italic;font-variant:normal;font-weight:bold;font-stretch:normal;font-family:LMMathSymbols9;-inkscape-font-specification:LMMathSymbols9 Bold Italic"
           y="27.355848"
           x="3.9446316"
           id="tspan3790"
           sodipodi:role="line">J</tspan></text>
      <g
         id="layer1-7-88"
         transform="matrix(2.2711763,2.2711763,-2.0765626,2.0765626,117.0668,94.436511)">
        <path
           sodipodi:nodetypes="cccccccccc"
           style="fill:#000000"
           inkscape:connector-curvature="0"
           d="M 7.989,3.103 C 7.747,-0.954 0.242,-8.59 0,-10.5 c -0.242,1.909 -7.747,9.545 -7.989,13.603 -0.169,2.868 1.695,4.057 3.39,4.057 1.8351685,-0.021581 3.3508701,-2.8006944 3.873,-3.341 0.242,0.716 -1.603,6.682 -2.179,6.682 l 5.811,0 C 2.33,10.501 0.485,4.535 0.727,3.819 1.1841472,4.3152961 2.5241276,7.0768295 4.601,7.16 6.295,7.159 8.158,5.971 7.989,3.103 z"
           id="sl-4" />
      </g>
      <text
         sodipodi:linespacing="125%"
         id="text3019"
         y="49.051323"
         x="4.2733507"
         style="font-size:32px;font-style:normal;font-weight:normal;line-height:125%;letter-spacing:0px;word-spacing:0px;fill:#000000;fill-opacity:1;stroke:none;font-family:Bitstream Vera Sans"
         xml:space="preserve"><tspan
           style="font-size:38.40000153px;font-style:italic;font-variant:normal;font-weight:bold;font-stretch:normal;font-family:URW Chancery L;-inkscape-font-specification:URW Chancery L Bold Italic"
           y="49.051323"
           x="4.2733507"
           id="tspan3021"
           sodipodi:role="line">o</tspan></text>
      <text
         sodipodi:linespacing="125%"
         id="text3023"
         y="76.992462"
         x="2.6297548"
         style="font-size:32px;font-style:normal;font-weight:normal;line-height:125%;letter-spacing:0px;word-spacing:0px;fill:#000000;fill-opacity:1;stroke:none;font-family:Bitstream Vera Sans"
         xml:space="preserve"><tspan
           style="font-size:38.40000153px;font-style:italic;font-variant:normal;font-weight:bold;font-stretch:normal;font-family:URW Chancery L;-inkscape-font-specification:URW Chancery L Bold Italic"
           y="76.992462"
           x="2.6297548"
           id="tspan3025"
           sodipodi:role="line">k</tspan></text>
      <text
         sodipodi:linespacing="125%"
         id="text3027"
         y="99.345383"
         x="2.6297553"
         style="font-size:32px;font-style:normal;font-weight:normal;line-height:125%;letter-spacing:0px;word-spacing:0px;fill:#000000;fill-opacity:1;stroke:none;font-family:Bitstream Vera Sans"
         xml:space="preserve"><tspan
           style="font-size:38.40000153px;font-style:italic;font-variant:normal;font-weight:bold;font-stretch:normal;font-family:URW Chancery L;-inkscape-font-specification:URW Chancery L Bold Italic"
           y="99.345383"
           x="2.6297553"
           id="tspan3029"
           sodipodi:role="line">e</tspan></text>
      <text
         sodipodi:linespacing="125%"
         id="text3031"
         y="120.3834"
         x="2.3010359"
         style="font-size:32px;font-style:normal;font-weight:normal;line-height:125%;letter-spacing:0px;word-spacing:0px;fill:#000000;fill-opacity:1;stroke:none;font-family:Bitstream Vera Sans"
         xml:space="preserve"><tspan
           style="font-size:38.40000153px;font-style:italic;font-variant:normal;font-weight:bold;font-stretch:normal;font-family:URW Chancery L;-inkscape-font-specification:URW Chancery L Bold Italic"
           y="120.3834"
           x="2.3010359"
           id="tspan3033"
           sodipodi:role="line">r</tspan></text>
      <g
         id="layer1-9"
         transform="matrix(2.374378,-2.374378,2.2221918,2.2221918,59.383523,95.635421)">
        <path
           sodipodi:nodetypes="scsscss"
           d="M 3.676,-9 C 0.433,-9 0,-5.523 0,-5.523 0,-5.523 -0.433,-9 -3.676,-9 -5.946,-9 -8,-7.441 -8,-4.5 -8,-0.614 -1.4208493,3.2938141 0,9 1.35201,3.2985969 8,-0.614 8,-4.5 8,-7.441 5.946,-9 3.676,-9 z"
           id="hl"
           inkscape:connector-curvature="0"
           style="fill:#df0000" />
      </g>
      <g
         id="layer1-1"
         transform="matrix(-2.145754,-2.145754,2.145754,-2.145754,110.19878,305.77847)">
        <path
           style="fill:#000000"
           inkscape:connector-curvature="0"
           d="m 50.291466,22.698228 c 0,0 2.375,-1.9 2.375,-4.534 0,-1.542 -1.369,-4.102 -4.534,-4.102 -3.165,0 -4.534,2.561 -4.534,4.102 0,2.634 2.375,4.534 2.375,4.534 -2.638,-2.055 -7.341,-0.652 -7.341,3.455 0,2.056 1.68,4.318 4.318,4.318 3.165,0 4.534,-3.455 4.534,-3.455 0,0 0.402,3.938 -1.943,6.046 h 5.182 c -2.345,-2.107 -1.943,-6.046 -1.943,-6.046 0,0 1.369,3.455 4.534,3.455 2.639,0 4.318,-2.263 4.318,-4.318 0,-4.107 -4.703,-5.51 -7.341,-3.455 z"
           id="cl" />
      </g>
      <g
         id="layer1-2"
         transform="matrix(2.235014,-2.235014,2.235014,2.235014,117.78936,156.16707)">
        <path
           sodipodi:nodetypes="ccccccccc"
           d="M 3.2433274,-4.7253274 C 1.1263274,-7.5893274 0,-10.5 0,-10.5 c 0,0 -1.1263274,2.9106726 -3.2433274,5.7746726 C -5.3613274,-1.8623274 -8,0 -8,0 -8,0 -5.3613274,1.8613274 -3.2433274,4.7263274 -1.1263274,7.5893274 0,10.5 0,10.5 0,10.5 1.1263274,7.5893274 3.2433274,4.7263274 5.3613274,1.8613274 8,0 8,0 8,0 5.3613274,-1.8623274 3.2433274,-4.7253274 z"
           id="dl"
           inkscape:connector-curvature="0"
           style="fill:#df0000" />
      </g>
      <text
         transform="scale(-1,-1)"
         sodipodi:linespacing="125%"
         id="text3788-8"
         y="-215.00195"
         x="-163.71599"
         style="font-size:32px;font-style:normal;font-weight:normal;line-height:125%;letter-spacing:0px;word-spacing:0px;fill:#000000;fill-opacity:1;stroke:none;font-family:Bitstream Vera Sans"
         xml:space="preserve"><tspan
           style="font-style:italic;font-variant:normal;font-weight:bold;font-stretch:normal;font-family:LMMathSymbols9;-inkscape-font-specification:LMMathSymbols9 Bold Italic"
           y="-215.00195"
           x="-163.71599"
           id="tspan3790-8"
           sodipodi:role="line">J</tspan></text>
      <text
         transform="scale(-1,-1)"
         sodipodi:linespacing="125%"
         id="text3019-4"
         y="-193.30647"
         x="-163.38727"
         style="font-size:32px;font-style:normal;font-weight:normal;line-height:125%;letter-spacing:0px;word-spacing:0px;fill:#000000;fill-opacity:1;stroke:none;font-family:Bitstream Vera Sans"
         xml:space="preserve"><tspan
           style="font-size:38.40000153px;font-style:italic;font-variant:normal;font-weight:bold;font-stretch:normal;font-family:URW Chancery L;-inkscape-font-specification:URW Chancery L Bold Italic"
           y="-193.30647"
           x="-163.38727"
           id="tspan3021-3"
           sodipodi:role="line">o</tspan></text>
      <text
         transform="scale(-1,-1)"
         sodipodi:linespacing="125%"
         id="text3023-1"
         y="-165.36533"
         x="-165.03085"
         style="font-size:32px;font-style:normal;font-weight:normal;line-height:125%;letter-spacing:0px;word-spacing:0px;fill:#000000;fill-opacity:1;stroke:none;font-family:Bitstream Vera Sans"
         xml:space="preserve"><tspan
           style="font-size:38.40000153px;font-style:italic;font-variant:normal;font-weight:bold;font-stretch:normal;font-family:URW Chancery L;-inkscape-font-specification:URW Chancery L Bold Italic"
           y="-165.36533"
           x="-165.03085"
           id="tspan3025-4"
           sodipodi:role="line">k</tspan></text>
      <text
         transform="scale(-1,-1)"
         sodipodi:linespacing="125%"
         id="text3027-9"
         y="-143.01241"
         x="-165.03085"
         style="font-size:32px;font-style:normal;font-weight:normal;line-height:125%;letter-spacing:0px;word-spacing:0px;fill:#000000;fill-opacity:1;stroke:none;font-family:Bitstream Vera Sans"
         xml:space="preserve"><tspan
           style="font-size:38.40000153px;font-style:italic;font-variant:normal;font-weight:bold;font-stretch:normal;font-family:URW Chancery L;-inkscape-font-specification:URW Chancery L Bold Italic"
           y="-143.01241"
           x="-165.03085"
           id="tspan3029-2"
           sodipodi:role="line">e</tspan></text>
      <text
         transform="scale(-1,-1)"
         sodipodi:linespacing="125%"
         id="text3031-0"
         y="-121.97439"
         x="-165.35957"
         style="font-size:32px;font-style:normal;font-weight:normal;line-height:125%;letter-spacing:0px;word-spacing:0px;fill:#000000;fill-opacity:1;stroke:none;font-family:Bitstream Vera Sans"
         xml:space="preserve"><tspan
           style="font-size:38.40000153px;font-style:italic;font-variant:normal;font-weight:bold;font-stretch:normal;font-family:URW Chancery L;-inkscape-font-specification:URW Chancery L Bold Italic"
           y="-121.97439"
           x="-165.35957"
           id="tspan3033-6"
           sodipodi:role="line">r</tspan></text>
    </g>
  </g>
</svg>
