<?xml version="1.0" encoding="UTF-8" standalone="no"?>
<!-- Created with Inkscape (http://www.inkscape.org/) -->

<svg
   xmlns:dc="http://purl.org/dc/elements/1.1/"
   xmlns:cc="http://creativecommons.org/ns#"
   xmlns:rdf="http://www.w3.org/1999/02/22-rdf-syntax-ns#"
   xmlns:svg="http://www.w3.org/2000/svg"
   xmlns="http://www.w3.org/2000/svg"
   xmlns:sodipodi="http://sodipodi.sourceforge.net/DTD/sodipodi-0.dtd"
   xmlns:inkscape="http://www.inkscape.org/namespaces/inkscape"
   width="744.09448819"
   height="1052.3622047"
   id="svg15151"
   version="1.1"
   inkscape:version="0.48.4 r9939"
   sodipodi:docname="Z - Black Joker.svg">
  <defs
     id="defs15153" />
  <sodipodi:namedview
     id="base"
     pagecolor="#ffffff"
     bordercolor="#666666"
     borderopacity="1.0"
     inkscape:pageopacity="0.0"
     inkscape:pageshadow="2"
     inkscape:zoom="1.979899"
     inkscape:cx="244.3285"
     inkscape:cy="849.43837"
     inkscape:document-units="px"
     inkscape:current-layer="black_joker"
     showgrid="false"
     inkscape:window-width="1600"
     inkscape:window-height="838"
     inkscape:window-x="-8"
     inkscape:window-y="-8"
     inkscape:window-maximized="1" />
  <metadata
     id="metadata15156">
    <rdf:RDF>
      <cc:Work
         rdf:about="">
        <dc:format>image/svg+xml</dc:format>
        <dc:type
           rdf:resource="http://purl.org/dc/dcmitype/StillImage" />
        <dc:title></dc:title>
      </cc:Work>
    </rdf:RDF>
  </metadata>
  <g
     inkscape:label="Layer 1"
     inkscape:groupmode="layer"
     id="layer1">
    <g
       transform="matrix(3.501549,0,0,3.501549,85.616131,-2478.0648)"
       id="black_joker"
       inkscape:export-xdpi="52.622528"
       inkscape:export-ydpi="52.622528">
      <g
         id="g9257">
        <g
           id="base_52_">
          <path
             id="path9260"
             d="m 0,972.327 c 0,3.778 3.089,6.867 6.867,6.867 h 152.789 c 3.769,0 6.857,-3.089 6.857,-6.867 V 744.011 c 0,-3.778 -3.089,-6.867 -6.857,-6.867 H 6.867 C 3.089,737.144 0,740.233 0,744.011 v 228.316 z"
             inkscape:connector-curvature="0"
             style="fill:#ffffff;stroke:#000000;stroke-width:2.5" />
        </g>
      </g>
      <g
         id="joker_text">
        <text
           id="text9263"
           font-size="25.745"
           transform="matrix(0.4379,0,0,1,8.031,763.0005)"
           style="font-size:25.74500083999999900px;font-family:CopperplateGothic-Bold;fill:#e6180a">JOKER</text>
        <text
           id="text9265"
           font-size="25.745"
           transform="matrix(-0.4379,0,0,-1,158.4802,953.3375)"
           style="font-size:25.74500083999999900px;font-family:CopperplateGothic-Bold;fill:#e6180a">JOKER</text>
      </g>
      <g
         id="Full_joker">
        <g
           id="g9268">
          <g
             transform="translate(-1094.1,-924.2)"
             id="joker">
            <path
               id="path9271"
               d="m 1194.904,1860.615 -0.749,1.447 0.773,5.032 2.015,-0.349 3.994,-2.703 -4.44,-4.225"
               inkscape:connector-curvature="0"
               style="fill:#e6180a" />
            <path
               id="path9273"
               d="m 1210.178,1727.082 c 0.28,0.105 -6.415,6.417 -7.256,6.417 l -5.68,3.155 -3.383,4.996 -2.542,5.627 -0.156,6.24 2.366,3.364 5.03,1.035 6.293,-1.104 6.896,-4.387 3.494,-4.527 1.321,-4.422 -0.466,-2.948 -3.131,-1.512 -2.674,-0.25 -0.187,-1.126 0.481,-2.705 -2.291,-1.826 -4.182,0.275 6.79,-6.141 7.035,1.784 3.32,-0.601 9.454,11.602 -5.059,6.97 -0.781,3.012 1.051,4.241 1.579,4.349 -0.773,4.697 -1.191,1.683 0.14,3.716 -0.737,1.893 -2.559,1.088 -2.384,-1.017 -1.471,-2.559 0.737,-2.981 1.997,-1.122 1.788,-0.034 0.316,-0.525 -1.402,-3.612 -3.19,-2.348 -2.595,-0.141 -6.309,4.276 -0.702,3.683 -0.069,6.169 6.1,4.032 2.768,4.452 0.876,5.188 0.702,6.451 5.784,14.373 2.033,3.646 -0.771,0.631 -4.732,-2.209 -4.278,-4.418 -0.245,-3.364 0.808,-2.63 -1.123,-1.963 -1.893,0.035 -1.191,1.893 0.175,1.543 1.542,2.524 -0.7,3.892 -2.805,5.188 -1.473,0.035 -2.91,-4.138 -1.613,-5.504 1.508,-3.575 -0.034,-1.438 -2.559,-2.068 -1.964,0.632 -1.437,2.207 1.473,4.804 -1.579,2.841 -5.926,5.013 -1.085,-0.632 -1.368,-3.575 -0.351,-5.329 3.227,-2.524 0.246,-2.804 -1.824,-1.577 -1.997,0.314 -1.999,1.437 -0.14,2.63 0.034,3.155 -3.961,5.084 -4.383,3.33 -1.822,-0.491 -0.771,-2.313 -0.14,-9.676 3.856,-2.033 1.122,-2.208 -1.228,-1.964 -2.524,-0.771 -2.208,1.402 -0.982,2.313 0.736,3.155 -1.613,1.788 -2.382,1.999 -6.206,2.944 -2.735,0.42 0.035,-3.996 2.173,-6.905 1.824,-2.63 4.136,-1.228 1.333,-2.559 -0.736,-1.999 -2.665,-1.191 -2.419,1.368 -0.842,1.611 -0.455,2.384 -3.295,2.279 -8.59,2.63 -1.226,-1.157 2.559,-7.398 3.364,-3.33 3.961,-0.56 1.613,-2.771 -0.771,-2.63 -2.384,-1.051 -2.242,1.086 -1.788,3.926 -3.332,2.176 -8.028,1.471 0.911,-3.504 1.928,-3.578 1.368,-1.19 2.244,-2.49 3.681,-0.314 1.471,-1.542 0.491,-1.368 -0.174,-1.402 -1.999,-1.296 -3.295,0.979 -1.717,0.105 -3.261,-3.155 -1.228,-2.033 0.771,-0.386 4.243,0.105 4.873,-1.297 9.572,-4.417 4.172,-0.806 4.241,0.876 3.225,1.928 -0.069,-2.067 1.331,-1.719 4.207,-0.806 0.211,-0.527 0.14,-3.085 2.279,-1.962 1.719,-6.065 3.436,-5.329 0.035,-1.613 -2.208,-4.663 0.069,-4.943 0.982,-2.768 1.928,-2.664 4.523,-1.965 1.822,-2.733 1.893,-0.876 2.313,0.631 1.473,2.348 -0.737,3.366 -2.804,1.191 -3.225,-1.297 -0.631,0.246 -0.457,3.575 0.911,3.084 1.999,1.193 7.362,-1.858"
               inkscape:connector-curvature="0"
               style="fill:#e6180a" />
            <polygon
               id="polygon9275"
               points="1203.56,1733.13 1210.397,1727.023 1210.802,1727.499 1203.965,1733.607 "
               style="fill:#e6180a" />
            <path
               id="path9277"
               d="m 1145.34,1765.423 3.099,0.698 2.182,3.709 -2.401,11.567 -6.24,11.611 -9.56,9.821 h -8.423 l -1.354,-1.835 10.737,-9.689 8.6,-14.055"
               inkscape:connector-curvature="0"
               style="fill:#e6180a" />
            <path
               id="path9279"
               d="m 1200.235,1809.864 1.348,-1.011 3.872,-0.953 1.236,1.122 2.076,7.856 0.73,4.264 -0.562,7.969 -3.198,12.965 -2.358,5.723 -3.815,4.939 -4.659,3.198 0.337,-2.245 1.347,-2.188 2.581,-4.265 2.301,-6.79 2.076,-9.148 0.73,-6.51 -1.011,-7.295 -2.918,-5.219"
               inkscape:connector-curvature="0"
               style="fill:#e6180a" />
            <path
               id="path9281"
               d="m 1178.817,1822.38 0.893,-0.879 2.766,-0.276 2.175,-0.785 0.343,-0.39 1.146,0.29 0.528,-0.74 0.802,0.365 0.61,-0.136 1.404,-0.384 3.354,-6.506 1.557,-3.803 1.154,0.556 1.366,-0.411 9.211,-2.825 0.601,1.258 -1.775,0.122 -3.275,0.868 -1.934,1.287 0.386,2.098 -1.234,0.566 -2.518,3.631 0.311,1.169 2.299,-0.526 1.24,-2.514 -0.412,-1.38 0.678,-0.169 2.514,4.593 -0.574,5.316 1.607,2.801 -0.931,6.98 -0.997,4.462 -1.189,4.68 -1.989,5.663 -3.19,5.359 -0.379,-2.384 1.919,-4.868 -0.919,-8.702 0.17,-8.108 -1.891,-0.613 -1.104,1.882 0.235,18.095 1.023,2.692 0.375,2.616 -0.736,3.2 1.284,3.297 -0.899,1.082 -0.866,2.108 1.431,3.863 0.785,-0.03 4.933,-2.991 0.96,2.561 -2.368,2.931 -3.88,0.822 -2.378,-3.499 -0.404,-4.884 0.016,-1.752 -1.354,-0.846 -0.144,-3.6 -2.65,-7.261 -0.729,-7.573 -0.102,-7.423 0.093,-4.712 -5.523,0.29 -0.479,0.872 -1.398,-0.823 -2.498,0.72 -1.916,-0.057 -2.165,1.229 -3.892,0.916 -3.632,0.482 1.443,-1.634 7.632,-1.503 2.63,-1.602 0.838,-3.987"
               inkscape:connector-curvature="0" />
            <rect
               id="rect9283"
               height="0.89600003"
               width="0.94199997"
               y="1812.089"
               x="1199.569" />
            <rect
               id="rect9285"
               height="2.5139999"
               width="0.91600001"
               y="1850.693"
               x="1194.783" />
            <polygon
               id="polygon9287"
               points="1202.646,1825.302 1201.855,1818.026 1203.256,1817.859 1204.047,1825.135 " />
            <path
               id="path9289"
               d="m 1207.331,1807.816 c 0,0.248 1.938,4.322 1.938,4.322 l 1.242,6.261 0.15,8.445 -1.938,12.123 -0.497,1.191 0.446,0.249 0.498,-0.349 5.714,-12.072 2.285,-9.787 0.497,-5.266 0.893,0.347 -0.646,7.65 -2.93,10.483 -4.919,10.185 -5.416,7.204 -2.483,1.938 -0.199,-1.043 3.129,-5.714 3.677,-14.011 0.696,-8.246 -1.591,-9.19 -1.54,-4.721"
               inkscape:connector-curvature="0" />
            <g
               id="g9291"
               transform="translate(-924.12,211.4)">
              <path
                 id="path9293"
                 d="m 2094.97,1492.721 3.92,0.343 2.157,4.896 -1.652,3.565 -5.422,-0.665 -0.873,-5.055"
                 inkscape:connector-curvature="0"
                 style="fill:#e6180a" />
              <path
                 id="path9295"
                 d="m 2107.18,1487.802 3.222,-1.57 1.285,0.446 0.458,1.664 0.01,1.559 -0.917,2.626 -3.176,2.854 -5.572,1.272 -0.4,-1.536 1.982,-0.618 2.717,-2.661"
                 inkscape:connector-curvature="0"
                 style="fill:#e6180a" />
              <path
                 id="path9297"
                 d="m 2068.809,1490.007 c 0,1.236 -0.944,2.238 -2.108,2.238 -1.164,0 -2.108,-1.002 -2.108,-2.238 0,-1.236 0.944,-2.238 2.108,-2.238 1.164,-10e-4 2.108,1.001 2.108,2.238 l 0,0 z"
                 inkscape:connector-curvature="0"
                 style="fill:#ff009c" />
              <path
                 id="path9299"
                 d="m 2073.736,1501.356 c 0,1.147 -0.981,2.078 -2.193,2.078 -1.212,10e-4 -2.195,-0.929 -2.196,-2.077 v -10e-4 c 0,-1.148 0.982,-2.079 2.194,-2.079 1.212,-10e-4 2.195,0.93 2.195,2.077 0,0 0,10e-4 0,0 z"
                 inkscape:connector-curvature="0"
                 style="fill:#00ff0a" />
              <path
                 id="path9301"
                 d="m 2084.748,1518.322 c 10e-4,1.197 -1.064,2.168 -2.379,2.168 -1.315,10e-4 -2.382,-0.969 -2.382,-2.165 0,-10e-4 0,0 0,0 0,-1.196 1.064,-2.167 2.379,-2.167 1.315,-10e-4 2.382,0.968 2.382,2.165 0,10e-4 0,0 0,0 z"
                 inkscape:connector-curvature="0"
                 style="fill:#ff9e00" />
              <path
                 id="path9303"
                 d="m 2093.577,1524.151 c 0,1.317 -1.044,2.386 -2.332,2.386 -1.288,0 -2.332,-1.068 -2.332,-2.386 0,-1.318 1.044,-2.386 2.332,-2.386 1.287,0 2.332,1.069 2.332,2.386 z"
                 inkscape:connector-curvature="0"
                 style="fill:#0072ff" />
              <path
                 id="path9305"
                 d="m 2102.891,1527.091 c 10e-4,1.453 -1.056,2.633 -2.361,2.635 -1.305,0 -2.365,-1.176 -2.366,-2.629 0,0 0,0 0,-0.01 0,-1.453 1.056,-2.633 2.361,-2.635 1.306,-10e-4 2.365,1.176 2.367,2.629 -10e-4,0 -10e-4,0 -10e-4,0.01 z"
                 inkscape:connector-curvature="0"
                 style="fill:#ffff00" />
              <path
                 id="path9307"
                 d="m 2078.468,1511.155 c 0.342,0.561 0.027,1.372 -0.705,1.814 -0.731,0.441 -1.601,0.346 -1.943,-0.214 l 0,0 c -0.342,-0.56 -0.027,-1.372 0.705,-1.813 0.731,-0.442 1.601,-0.347 1.943,0.213 z"
                 inkscape:connector-curvature="0"
                 style="fill:#e6180a" />
              <path
                 id="path9309"
                 d="m 2084.132,1507.389 c 0,0.523 -0.367,0.947 -0.821,0.947 -0.453,0 -0.821,-0.424 -0.821,-0.947 0,-0.522 0.368,-0.946 0.821,-0.946 0.454,0 0.821,0.424 0.821,0.946 z"
                 inkscape:connector-curvature="0"
                 style="fill:#e6180a" />
              <path
                 id="path9311"
                 d="m 2072.483,1516.453 c 0.147,0.168 -0.103,0.576 -0.558,0.912 -0.455,0.337 -0.943,0.473 -1.09,0.306 -0.01,-0.01 -0.016,-0.021 -0.021,-0.032 -0.147,-0.168 0.103,-0.576 0.558,-0.912 0.455,-0.337 0.943,-0.473 1.09,-0.306 0.01,0.01 0.015,0.02 0.021,0.032 z"
                 inkscape:connector-curvature="0"
                 style="fill:#e6180a" />
              <polygon
                 id="polygon9313"
                 points="2056.846,1529.691 2055.041,1527.875 2058.905,1524.283 2060.71,1526.099 "
                 style="fill:#e6180a" />
              <polygon
                 id="polygon9315"
                 points="2048.708,1535.642 2047.101,1533.789 2052.734,1529.244 2054.34,1531.097 "
                 style="fill:#e6180a" />
              <path
                 id="path9317"
                 d="m 2045.325,1536.846 c 0.281,0.317 0.159,0.883 -0.272,1.264 -0.432,0.38 -1.01,0.432 -1.291,0.114 -0.016,-0.019 -0.031,-0.038 -0.045,-0.058 -0.281,-0.317 -0.159,-0.883 0.272,-1.264 0.432,-0.38 1.009,-0.432 1.291,-0.114 0.016,0.019 0.031,0.039 0.045,0.058 z"
                 inkscape:connector-curvature="0"
                 style="fill:#e6180a" />
              <path
                 id="path9319"
                 d="m 2044.748,1595.726 1.487,-0.534 2.149,1.145 1.942,1.813 0.021,1.922 -4.15,2.159 -2.08,-1.38 0.207,-4.13"
                 inkscape:connector-curvature="0"
                 style="fill:#e6180a" />
              <path
                 id="path9321"
                 d="m 2061.313,1533.767 4.754,-1.504 1.098,1.626 -1.382,18.242 2.802,3.251 -3.005,11.538 -3.413,1.545 -8.411,-3.168 -0.406,-3.413 3.21,-15.685 3.9,-11.051"
                 inkscape:connector-curvature="0"
                 style="fill:#e6180a" />
              <path
                 id="path9323"
                 d="m 2106.058,1611.351 13.137,-3.01 3.407,-1.459 2.478,-0.235 0.647,1.193 0.059,5.899 -1.047,0.988 -18.549,1.459 -1.901,-0.339 -0.132,-2.522"
                 inkscape:connector-curvature="0"
                 style="fill:#e6180a" />
              <path
                 id="path9325"
                 d="m 2150.602,1501.275 c 0.28,0 2.067,0.28 2.313,0.491 0.246,0.209 1.611,1.893 1.611,1.893 l -0.42,3.225 0.211,1.368 2.593,4.521 0.982,5.329 -0.982,6.802 -1.822,4.138 -9.746,-11.956 3.401,-1.086 3.225,-3.295 0.736,-3.612 -0.314,-0.386 -3.367,-0.42 -1.962,-2.91 1.365,-3.084"
                 inkscape:connector-curvature="0"
                 style="fill:#e6180a" />
              <path
                 id="path9327"
                 d="m 2078.616,1508.635 c -2.417,1.882 -5.065,5.244 -7.922,6.354 -1.136,0.432 -3.131,-2.738 -4.18,-0.104 -1.687,-0.483 -2.963,0.273 -3.044,2.029 -1.889,0.01 -4.27,1.442 -5.329,3.052 -1.059,1.615 0.747,3.398 -0.558,4.876 -3.044,3.441 -7.709,6.128 -11.246,9.059 -1.2,0.984 -3.582,2.238 -3.257,4.115 0.447,2.565 4.487,-0.812 5.323,-1.521 2.419,-1.98 4.905,-4.274 7.559,-5.901 0.528,-0.322 1.784,-1.709 2.409,-1.583 0.692,0.156 2.092,3.646 2.236,4.341 0.225,1.218 -1.199,3.112 -1.601,4.262 -1.36,3.896 -2.857,7.794 -3.941,11.77 -1.141,4.186 -1.183,8.933 -2.715,12.987 -0.786,2.049 -2.438,3.699 -3.416,5.682 -1.631,3.312 -2.958,7.38 -3.855,10.958 -0.853,3.4 -0.948,7.457 -0.686,10.958 0.065,0.635 0.812,1.063 0.802,1.623 -0.014,0.608 -1.143,0.763 -1.319,1.433 -0.229,0.866 0.444,1.611 0.43,2.423 -0.057,3.119 -1.386,6.773 0.493,9.74 1.411,2.097 7.103,-0.661 7.914,-2.336 0.471,-0.882 -0.203,-1.763 -0.542,-2.534 -1.12,-2.319 -2.932,-3.61 -4.937,-5.12 -0.566,-0.439 -0.974,-2.457 -0.461,-3.076 0.461,-0.527 1.327,-0.121 1.881,-0.012 1.42,0.309 3.186,0.126 4.667,0.093 5.065,-0.125 9.606,-0.763 14.408,-2.572 1.396,-0.528 3.902,-1.153 4.667,-2.5 -4.341,0.202 -8.214,3.159 -12.785,2.435 0.071,0.013 3.263,-3.212 3.263,-3.212 1.437,-1.811 6.146,-7.338 7.202,-9.369 0.751,-1.421 1.479,-3.844 2.677,-4.951 0.702,-0.649 2.567,-0.384 3.499,-0.568 2.232,-0.453 4.562,-1.278 6.402,-2.701 1.826,-1.412 0.889,-4.33 3.744,-5.038 1.581,-0.393 3.005,0.992 3.131,2.506 0.105,1.269 -1.019,2.549 -2.117,3.046 -1.124,0.509 -2.283,-0.079 -3.45,0.621 -2.841,1.696 -4.383,5.509 -5.3,8.508 -0.26,0.851 -0.828,2.733 -0.179,3.527 0.769,0.938 4.519,-0.28 5.479,-0.619 2.478,-0.815 5.759,-1.869 7.596,-3.831 0.629,-0.674 0.52,-1.696 0.813,-2.526 0.761,-2.153 2.616,-3.379 4.745,-2.197 1.662,0.929 1.352,2.808 0.219,4.023 -1.541,1.642 -3.758,0.613 -5.073,2.443 -1.922,2.679 -2.654,6.555 -3.293,9.732 -0.152,0.759 -0.542,2.892 0.19,3.449 0.609,0.473 1.683,0 2.313,-0.198 2.092,-0.613 4.095,-1.481 5.968,-2.622 1.836,-1.118 3.204,-2.455 4.787,-3.876 -2.435,4.604 -4.468,9.465 -6.633,14.205 -0.769,1.682 -1.439,4.744 -2.803,6.004 -1.319,1.218 -4.866,-1.984 -6.189,-2.478 -0.66,-0.249 -1.956,-0.558 -2.435,0.191 -1.218,1.907 3.038,4.543 4.059,5.616 -3.342,-0.144 -6.81,-0.943 -10.146,-0.804 -1.015,0.043 -2.707,-0.01 -3.45,0.764 -0.812,0.813 -0.109,1.606 0.812,1.81 2.49,0.55 5.377,1.021 7.914,1.274 v 0.203 c -2.123,0.505 -4.353,-0.059 -6.494,0.322 -0.737,0.132 -1.863,0.365 -2.232,1.118 -0.485,1.076 1.015,1.666 1.827,1.768 2.701,0.341 5.604,0.239 8.32,0.239 v 0.406 c -2.701,0.213 -5.284,0.727 -7.914,1.374 -0.812,0.196 -2.677,0.793 -1.703,1.962 0.688,0.849 2.108,0.759 3.123,0.723 2.782,-0.134 5.546,-1.161 8.32,-1.218 -1.305,1.717 -3.935,2.165 -5.479,3.855 -2.6,2.912 2.068,1.749 3.45,1.015 -0.761,2.238 -1.912,4.326 -2.841,6.494 -0.319,0.74 -1.035,1.765 -0.913,2.638 0.102,0.686 0.71,0.406 1.008,0 0.651,-1.049 1.069,-2.334 1.528,-3.45 h 0.203 l -0.406,2.029 c 1.826,-0.298 3.097,-4.861 3.653,-6.493 h 0.203 c -0.203,0.761 -1.948,3.679 -1.104,4.225 0.495,0.339 0.901,-0.661 1.045,-0.978 0.667,-1.543 1.479,-3.081 2.088,-4.668 h 0.203 l -1.42,4.465 c 2.335,-0.694 2.53,-5.207 4.058,-6.899 l -2.029,5.479 c 1.624,-0.132 2.376,-3.044 2.841,-4.464 h 0.203 l -1.015,3.449 c 1.469,-0.239 2.068,-2.368 2.435,-3.652 h 0.203 l -0.609,2.638 c 1.319,-0.202 1.658,-1.71 2.029,-2.841 h 0.203 c -0.757,2.436 0.812,1.496 1.42,-0.203 h 0.203 v 1.218 c 1.281,-0.203 1.624,-1.536 2.029,-2.638 h 0.203 l -0.203,1.826 c 1.12,-0.192 1.386,-1.218 1.624,-2.232 h 0.203 l -0.203,1.421 c 1.303,-0.104 1.703,-1.299 2.029,-2.436 h 0.203 l -0.203,1.826 c 0.988,-0.176 1.271,-1.17 1.624,-2.028 h 0.203 v 1.217 c 1.218,-0.2 1.564,-1.329 1.827,-2.435 h 0.203 c -0.473,2.705 0.982,0.499 1.865,0.121 0.816,-0.324 2.111,-0.213 3.005,-0.324 0,8.438 -0.678,16.338 1.991,24.554 0.337,1.037 0.954,1.986 1.218,3.044 0.377,1.51 -0.597,3.684 1.66,3.855 -0.144,3.379 -0.258,6.638 1.946,9.538 1.573,2.028 5.964,-0.346 6.912,-2.029 1.743,-3.099 -1.589,-5.885 -3.988,-7.577 -0.856,-0.593 -3.092,-1.938 -2.571,-3.339 0.321,-0.854 1.836,-1.497 2.571,-1.954 1.957,-1.218 3.787,-2.654 5.469,-4.232 4.416,-4.148 7.453,-9.367 10.079,-14.755 3.123,-6.431 5.355,-14.13 5.355,-21.308 0,-1.826 -0.032,-3.652 -0.059,-5.479 -0.01,-0.401 -0.022,-1.568 -0.714,-1.421 -0.67,0.112 -0.442,1.515 -0.442,1.971 0.059,2.088 -0.142,4.117 -0.432,6.146 -0.702,4.998 -1.648,10.146 -3.626,14.813 -1.337,3.247 -3.45,6.291 -4.667,9.538 h -0.203 c 2.638,-8.309 3.115,-17.653 1.38,-26.178 -0.473,-2.321 -1.264,-4.708 -2.598,-6.696 -0.304,-0.504 -0.643,-1.421 -1.26,-1.624 -0.642,-0.249 -2.101,0.459 -2.713,0.721 -2.043,0.903 -4.144,1.672 -6.173,2.526 1.818,-1.563 6.325,-4.576 6.271,-7.303 -0.035,-1.626 -1.603,-2.844 -1.362,-4.67 0.156,-1.217 1.512,-2.435 2.798,-2.331 0.495,0.044 0.889,0.322 1.274,0.612 2.733,2.064 -0.195,3.757 -0.201,5.979 -0.01,2.037 1.161,4.88 2.163,6.636 0.621,1.12 2.084,4.281 3.774,3.598 0.905,-0.369 1.392,-1.702 1.782,-2.515 1.077,-2.235 2.524,-4.937 2.104,-7.516 -0.286,-1.754 -3.208,-3.855 -0.219,-5.276 0.995,-0.489 2.013,0.461 2.173,1.421 0.209,1.243 -0.84,2.435 -0.878,3.652 -0.049,3.078 2.768,5.558 4.956,7.252 0.726,0.572 5.081,3.407 5.633,1.427 0.248,-0.885 -0.647,-2.238 -1.013,-2.997 -1.258,-2.561 -2.591,-5.047 -3.608,-7.711 -1.303,-3.417 -2.796,-6.696 -3.441,-10.35 -0.599,-3.376 -0.209,-7.102 -1.68,-10.314 -1.006,-2.177 -2.709,-3.967 -4.708,-5.273 -1.055,-0.688 -2.541,-1.151 -3.362,-2.144 -0.607,-0.732 0.042,-1.736 0.1,-2.561 0.15,-2.184 -0.652,-4.258 0.345,-6.438 0.357,-0.779 1.845,-1.38 2.516,-1.882 1.366,-1.096 2.472,-2.303 4.262,-2.536 2.971,-0.388 5.852,3.313 6.087,5.986 -0.925,0 -1.777,0.059 -2.638,0.44 -5.183,2.299 0.041,10.978 4.828,6.692 1.869,-1.69 0.357,-3.377 0.599,-5.307 0.097,-0.785 0.817,-1.346 1.159,-2.029 0.629,-1.267 0.925,-3.247 0.846,-4.667 -0.229,-3.083 -2.626,-5.808 -2.506,-8.929 0.148,-3.842 5.114,-7.381 6.782,-10.755 2.297,-4.727 2.675,-10.883 0.743,-15.828 -0.578,-1.481 -1.896,-2.639 -2.425,-4.049 -0.284,-0.706 0.462,-1.512 0.507,-2.242 0.16,-2.585 -1.398,-5.038 -4.239,-4.791 -2.94,0.256 -4.963,3.842 -3.301,6.414 1.069,1.688 3.054,2.17 4.925,1.827 -0.049,5.7 -6.443,8.788 -11.567,8.029 -2.94,-0.435 -5.207,-2.069 -8.32,-1.934 -2.269,0.1 -4.306,0.923 -6.494,1.412 -0.718,0.128 -1.854,0.608 -2.544,0.203 -2.76,-1.538 -1.557,-4.823 -1.311,-7.103 1.624,1.141 3.535,2.029 5.477,0.885 2.894,-1.696 2.299,-6.676 -1.013,-7.486 -1.552,-0.379 -3.381,0.24 -4.333,1.536 -0.438,0.601 -0.465,1.561 -1.049,2.034 -1.155,0.933 -3.044,1.045 -4.318,2.055 -2.709,2.147 -3.604,6.455 -3.255,9.702 0.142,1.335 0.574,2.848 1.183,4.059 0.462,0.915 1.394,1.683 0.972,2.807 -0.806,2.143 -2.674,4.04 -3.648,6.156 -0.775,1.624 -0.649,3.678 -1.471,5.203 -0.404,0.751 -1.335,1.096 -1.875,1.751 -0.885,1.078 -0.71,2.49 -0.473,3.767 -2.841,-0.668 -6.418,1.366 -5.682,4.465 -1.228,-0.851 -2.8,-2.029 -4.261,-2.409 -6.214,-1.446 -12.805,3.681 -18.484,5.457 -1.346,0.422 -3.038,0.858 -4.446,0.806 -1.015,-0.049 -2.49,-0.574 -3.393,0.01 -1.544,1.009 0.755,2.395 1.161,3.153 0.458,0.834 -0.895,0.527 -1.218,0.375 -1.217,-0.569 -4.464,-1.998 -5.073,-3.191 -0.442,-0.919 0,-2.944 0,-3.994 -0.083,-4.157 0.97,-8.263 1.019,-12.382 0,-1.263 0.282,-2.609 0.183,-3.855 -0.059,-0.741 -0.501,-1.474 -0.144,-2.198 0.516,-1.047 1.544,-1.86 2.121,-2.91 0.797,-1.44 1.063,-3.086 2.24,-4.304 1.285,-1.343 3.789,-2.553 4.669,-4.237 0.396,-0.755 -0.341,-1.454 -0.021,-2.137 0.27,-0.627 1.569,-1.183 2.115,-1.564 1.826,-1.262 3.531,-2.636 5.272,-4.008 0.601,-0.475 1.51,-1.907 2.335,-1.092 1.604,1.583 0.593,7.462 -1.581,8.247 -1.159,0.406 -2.303,-1.256 -3.795,-0.608 -1.073,0.418 -1.623,1.532 -1.623,2.638 -0.065,3.931 6.392,3.277 5.276,-0.608 4.812,-1.315 3.813,-7.502 4.913,-11.161 0.422,-1.404 1.962,-2.4 2.19,-3.652 0.87,-0.258 1.67,-1.478 2.483,-0.359 0.763,1.084 -0.105,4.62 -0.048,6.041 0.166,3.505 1.217,6.696 -0.122,10.146 -0.304,0.771 -0.58,2.029 -1.341,2.457 -0.54,0.574 -2.252,0.243 -3.33,0.745 -2.011,1.429 -1.55,6 2.45,4.586 2.157,-0.761 0.994,-2.22 2.025,-3.573 1.074,-1.413 2.792,-2.283 3.769,-3.808 2.22,-3.439 1.075,-7.504 0.406,-11.16 -0.203,-1.072 -0.678,-5.233 1.209,-5.233 0.714,0 1.019,1.053 1.215,1.58 0.67,1.826 1.337,3.601 1.751,5.479 0.897,4.129 1.396,9.874 -1.204,13.596 -0.858,1.218 -2.701,0.629 -3.378,2.236 -0.68,1.757 0.134,3.724 2.029,4.149 2.029,0.463 3.529,-1.209 3.441,-3.137 -0.032,-0.715 -0.607,-1.575 -0.25,-2.232 0.566,-1.062 1.654,-1.741 2.21,-2.841 1.8,-3.565 2.072,-8.626 0.747,-12.379 -1.076,-2.96 -5.954,-6.493 -4.951,-9.74 0.83,-2.69 3.989,-2.214 6.106,-3.328 4.793,-2.521 5.917,-5.992 4.268,-10.639 -0.116,-0.812 0.882,-1.604 0.394,-2.439 -0.438,-0.749 -1.415,-0.639 -1.869,0 -0.909,1.291 0.753,2.202 -0.897,3.458 -1.022,0.793 -2.358,0.499 -3.517,0.915 -0.538,0.195 -0.919,0.791 -1.473,0.895 -0.869,0.181 -1.654,-0.497 -2.478,0.181 -1.332,1.017 -0.919,3.988 -3.354,4.262 -3.766,0.339 -3.474,-2.559 -5.372,-4.87 -1.477,-1.8 -3.76,-2.878 -5.992,-3.403 -3.318,-0.779 -7.062,0.12 -9.138,3.03 -1.211,1.686 -1.764,5.806 -4.458,5.714 -1.051,-0.036 -3.719,-0.866 -4.131,-1.936 -0.536,-1.312 0.347,-2.596 -1.165,-3.608 -1.429,-0.932 -3.563,-0.296 -3.959,1.423 -0.369,1.619 0.327,3.411 2.153,3.607 0.736,0.082 1.512,-0.365 2.198,-0.026 1.824,0.971 3.218,2.639 5.513,2.206 2.989,-0.563 3.855,-4.571 6.088,-6.339 2.751,-2.168 7.827,-0.321 10.552,1.041 0.982,0.523 2.569,1.335 2.774,2.553 0.227,1.337 -2.571,0.465 -3.18,0.405 -3.373,-0.48 -7.305,0.55 -9.083,3.657 -1.287,2.246 -0.329,4.671 -3.499,5.617 -0.871,0.264 -2.184,0.669 -2.94,-0.054 -0.98,-0.9 -0.566,-2.493 -2.137,-2.999 -1.683,-0.537 -3.56,0.218 -3.807,2.101 -0.053,0.408 0,0.828 0.126,1.218 1.045,3.302 3.65,0.86 5.712,1.124 1.995,0.256 3.854,0.842 5.674,-0.601 2.289,-1.814 1.834,-4.582 5.081,-5.73 1.345,-0.471 5.538,-1.607 6.159,0.339 0.446,1.416 -1.518,2.313 -2.388,2.984 -2.021,1.561 -3.998,3.219 -6.002,4.849 -0.635,0.546 -3.689,2.91 -4.537,3.559 z m 24.018,-13.434 c 2.005,-0.202 4.409,-2.57 4.957,-4.464 0.242,-0.812 -0.192,-2.029 0.294,-2.771 0.55,-0.824 2.975,-1.969 3.63,-0.865 2.145,3.637 -2.411,8.136 -5.637,8.533 -1.012,0.124 -2.838,0.954 -3.244,-0.433 z m -36.12,-7.224 c 2.469,-0.322 3.121,3.782 0.608,4.136 -2.683,0.377 -3.247,-3.795 -0.608,-4.136 z m 34.699,3.368 c -0.069,0.619 0.203,1.854 1.106,1.131 0.372,-0.301 -1.451,-2.146 -0.375,-3.239 0.613,-0.608 1.583,-0.055 2.313,-0.158 0.7,-0.1 1.42,-0.929 2.167,-0.641 0.936,0.365 0.416,2.311 0.065,2.926 -0.913,1.632 -3.19,3.953 -5.276,3.578 -2.284,-0.416 -1.43,-2.738 0,-3.597 z m 2.842,-1.216 0.812,1.42 c 1.326,-0.812 0.608,-2.094 -0.812,-1.42 z m -1.827,2.161 c -0.073,0.072 -0.39,0.243 -0.521,0.192 -0.131,-0.051 -0.314,-1.478 -0.314,-1.478 0,0 0.908,1.213 0.835,1.286 z m -5.682,0.832 c 2.374,-0.559 4.44,4.328 3.706,6.138 -0.627,1.528 -1.638,0.301 -2.691,0.559 -0.609,0.15 -0.812,0.87 -1.433,0.99 -0.394,0.077 -0.838,-0.114 -0.851,-0.532 -0.024,-0.855 1.325,-1.12 0.97,-2.022 -0.375,-0.952 -2.746,-0.29 -2.542,-1.427 0.239,-1.344 1.932,0 2.417,-0.868 0.469,-0.807 -1.146,-2.461 0.424,-2.838 z m -25.568,6.41 c 2.609,-0.475 3.689,3.281 0.812,3.739 -2.495,0.401 -3.395,-3.255 -0.812,-3.739 z m 79.952,98.755 c -3.855,-0.744 -8.151,-3.933 -9.174,-7.914 -0.574,-2.232 2.561,-5.148 -0.972,-6.589 -1.723,-0.714 -3.131,1.723 -3.129,3.14 0,1.483 1.234,2.141 1.591,3.449 0.564,2.054 -1.303,5.145 -2.198,6.899 -0.322,0.609 -0.74,1.737 -1.54,1.843 -1.22,0.187 -2.677,-3.159 -3.07,-4.075 -0.606,-1.412 -1.684,-3.502 -1.534,-5.072 0.087,-0.907 0.816,-1.577 1.053,-2.436 0.579,-2.112 -0.197,-4.262 -2.333,-5.043 -1.5,-0.55 -3.45,0.79 -3.898,2.204 -0.77,2.259 1.303,3.767 1.019,5.682 -0.422,2.841 -5.075,5.574 -7.064,7.306 h -0.203 c -1.776,-1.585 -1.624,-3.855 -1.912,-6.088 -0.118,-0.812 -0.39,-2.186 0.085,-2.924 1.165,-1.743 3.653,-2.009 3.151,-4.787 -0.536,-2.948 -4.166,-3.334 -5.911,-1.21 -1.703,2.066 0.105,4.187 -0.832,6.283 -1.518,3.393 -5.132,5.968 -7.77,8.319 0,0 -1.029,-0.01 -1.229,-0.211 -0.201,-0.203 -0.647,-0.716 -0.832,-1.244 -0.505,-1.444 -0.694,-3.524 -0.518,-5.038 0.144,-1.491 -0.353,-3.855 0.268,-5.22 0.534,-1.154 2.918,-1.471 3.831,-2.433 2.062,-2.169 -0.515,-5.69 -3.143,-5.29 -1.985,0.302 -3.572,2.451 -3.411,4.422 0.075,0.925 0.81,2.067 0.28,2.94 -2.24,3.69 -8.086,5.844 -12.088,6.597 0,-3.652 1.163,-9.896 3.961,-12.517 1.487,-1.394 3.791,-0.194 5.17,-2.5 1.475,-2.435 -0.347,-5.264 -3.042,-5.433 -1.889,-0.117 -3.385,1.78 -3.855,3.403 -0.154,0.609 0,1.421 -0.343,1.901 -1.55,2.001 -4.933,2.854 -7.166,3.695 -0.852,0.316 -4.184,1.457 -4.87,0.572 -0.666,-0.881 0.588,-3.084 0.921,-3.935 0.905,-2.34 2.161,-5.192 4.558,-6.429 1.78,-0.917 3.565,0.188 4.925,-1.892 1.771,-2.753 -0.501,-6.845 -3.91,-5.669 -2.638,0.904 -2.029,3.376 -3.537,4.965 -2.449,2.563 -6.96,2.937 -10.262,2.937 0.381,-3.044 3.513,-7.809 6.122,-9.413 0.844,-0.52 1.717,-0.021 2.604,-0.22 1.827,-0.42 3.439,-2.683 2.959,-4.563 -0.459,-1.792 -3.028,-2.443 -4.582,-1.833 -0.617,0.25 -1.153,0.958 -1.827,1.029 -0.692,0.075 -1.217,-0.765 -1.642,-1.175 -1.145,-1.065 -2.975,-2.063 -3.229,-3.712 2.944,0 5.682,0 8.497,-1.015 4.558,-1.674 9.107,-4.829 14.028,-5.44 3.336,-0.414 5.205,2.6 8.32,2.6 -0.014,-0.689 -0.28,-1.564 -0.045,-2.224 0.822,-2.293 4.27,-1.163 5.402,-2.646 0.562,-0.783 0.163,-1.806 0.5,-2.638 0.434,-1.098 1.651,-1.466 2.173,-2.436 0.761,-1.471 0.696,-3.346 1.375,-4.87 1.039,-2.357 3.176,-4.667 3.884,-7.103 0.464,-1.623 -1.238,-3.526 -1.723,-5.073 -1.015,-3.178 -0.745,-6.414 0.95,-9.334 1.485,-2.602 3.59,-2.411 5.743,-3.803 1.685,-1.067 2.695,-4.412 5.481,-3.004 2.147,1.084 2.192,4.64 0,5.729 -1.895,0.941 -3.043,-0.871 -4.667,-0.544 -2.912,0.52 -1.218,6.316 -0.073,7.647 0.853,0.999 1.948,0.892 3.117,0.672 2.474,-0.542 4.754,-1.376 7.305,-1.589 2.435,-0.203 4.261,1.386 6.494,1.897 4.702,1.145 12.317,-0.917 13.596,-6.195 0.203,-0.86 0.609,-2.232 -0.089,-2.956 -0.633,-0.644 -1.552,-0.404 -2.346,-0.564 -1.631,-0.327 -2.861,-1.926 -2.571,-3.584 0.499,-2.841 4.314,-3.771 5.941,-1.42 1.161,1.676 -0.355,3.195 0.047,4.87 0.201,0.813 1.112,1.483 1.522,2.231 0.945,1.733 1.526,3.533 1.867,5.479 0.901,5.132 -0.44,10.146 -3.375,14.407 -1.644,2.387 -4.523,4.471 -4.994,7.509 -0.536,3.464 2.009,6.392 2.34,9.74 0.132,1.339 -0.093,3.212 -0.633,4.464 -0.296,0.672 -0.988,1.067 -1.11,1.831 -0.323,2.024 1.12,3.965 -1.092,5.556 -2.256,1.623 -5.79,-0.893 -5.165,-3.531 0.233,-0.972 0.97,-2.071 1.944,-2.388 0.769,-0.25 1.942,-0.134 2.429,-0.915 0.56,-0.897 -0.148,-2.379 -0.627,-3.19 -1.433,-2.348 -3.585,-4.093 -6.469,-3.699 -1.284,0.175 -2.263,1.167 -3.247,1.922 -1.015,0.767 -2.541,1.491 -3.326,2.468 -1.498,1.856 -0.745,4.791 -0.736,6.82 0,0.955 -0.739,2.126 -0.461,3.043 0.408,1.327 2.823,2.157 3.917,2.842 2.082,1.258 3.722,3.084 4.795,5.275 1.952,3.992 1.254,9.479 2.492,13.799 1.092,3.812 2.78,7.594 4.482,11.161 0.889,1.826 2.082,3.552 2.636,5.478 z m -67.777,-91.775 c 1.015,-0.301 1.333,1.481 0.377,1.727 -1.081,0.278 -1.407,-1.42 -0.377,-1.727 z m -6.696,4.112 -0.203,0.203 0.203,-0.203 z m 0.812,0.302 c 1.95,-0.367 1.587,2.006 -0.203,2.275 -1.962,0.298 -1.228,-2.005 0.203,-2.275 z m -9.477,4.306 c 1.749,-0.621 2.415,4.726 1.122,4.945 -1.12,0.193 -2.4,-4.48 -1.122,-4.945 z m -1.076,6.958 c -1.623,-0.271 -2.768,-4.204 -2.082,-5.625 0.802,-1.655 1.82,0.881 1.879,1.566 0.071,0.542 0.17,1.078 0.195,1.624 0.01,0.812 0.01,1.626 0.01,2.435 z m 8.929,-6.088 c -0.55,1.826 -2.841,2.581 -4.001,3.893 -1.36,1.502 -1.743,3.933 -3.101,5.586 -0.733,0.948 -2.535,1.402 -3.061,2.196 -0.389,0.568 0.828,0.823 1.112,1.109 0.621,0.609 0.325,1.965 -0.197,2.522 -0.749,0.764 -3.943,2.146 -4.896,1.41 -0.808,-0.622 -1.027,-2.019 -1.372,-2.918 -0.233,-0.604 -0.718,-1.318 -0.617,-1.994 0.087,-0.694 1.621,-2.33 2.333,-2.348 0.605,-0.015 0.974,0.527 1.613,0.3 1.071,-0.382 0.822,-1.619 1.478,-2.327 1.033,-1.129 2.262,-0.167 2.591,-2.358 3.544,0.424 4.396,-4.664 8.118,-5.071 z m 5.885,0.29 c 2.841,-0.821 4.379,2.996 1.615,3.836 -2.481,0.755 -4.103,-3.111 -1.615,-3.836 z m -9.132,0.117 c -0.15,0.838 -0.623,0.941 -1.42,1.015 0.148,-0.886 0.574,-0.987 1.42,-1.015 z m -10.272,1.572 c 0.647,-0.187 0.986,0.591 1.132,1.065 0.296,0.964 1.483,4.895 0.166,5.427 -0.649,0.262 -1.094,-0.476 -1.292,-0.962 -0.383,-0.941 -1.526,-5.073 -0.01,-5.53 z m -1.294,7.356 c -1.42,-0.467 -2.695,-3.652 -1.826,-5.017 0.812,-1.274 1.624,0.394 1.765,1.161 0.061,0.537 0.061,1.083 0.146,1.623 0.104,0.812 0.059,1.458 -0.085,2.233 z m 79.546,3.247 c 0,0 -1.262,-0.837 -2.727,-1.23 -1.13,-0.304 -2.403,-0.19 -3.158,-0.19 0.15,-1.181 0.853,-2.681 0.406,-3.855 -1.437,-4.113 -8.805,-1.421 -11.161,-0.043 -5.706,3.362 -9.54,10.506 -8.606,17.091 0.13,0.909 -0.12,1.73 0.231,2.638 1.581,4.059 7.106,3.661 10.606,3.281 7.776,-0.849 16.769,-9.536 14.409,-17.692 z m -49.514,-6.599 c 2.993,-0.753 3.111,3.604 0.777,4.107 -3.009,0.665 -3.707,-3.371 -0.777,-4.107 z m 35.309,8.831 -2.232,2.232 c 2.113,-0.363 4.84,-1.617 5.77,-3.652 0.927,-2.101 -1,-5.682 -3.334,-5.885 0.531,1.913 4.393,5.479 0.812,6.696 0,-2.51 -0.406,-5.203 -3.45,-5.276 0.889,-2.954 8.521,-4.014 10.402,-1.554 0.954,1.245 -0.938,3.086 0.239,4.063 1.69,1.402 4.982,-0.365 5.883,2.768 0.779,2.711 -1.15,5.682 -2.67,7.711 -3.938,5.307 -13.295,10.828 -19.941,6.696 -1.656,-1.065 -2.029,-3.246 -2.029,-5.072 -0.01,-3.938 1,-6.638 3.103,-9.943 0.688,-1.082 1.767,-3.548 3.176,-3.821 0.621,-0.128 0.905,1.181 1.089,1.587 0.668,1.571 1.46,2.939 3.182,3.45 z m -67.33,-6.087 c 0.719,-0.133 1.175,0.857 0.976,1.428 -0.272,0.932 -1.995,2.756 -3.009,2.833 -0.643,0 -1.455,-0.913 -1.134,-1.52 0.322,-0.657 2.475,-2.646 3.167,-2.741 z m 40.95,0.121 c 2.681,-1.045 4.107,2.995 1.808,3.957 -2.749,1.152 -4.308,-2.975 -1.808,-3.957 z m 26.646,5.353 c -0.142,0.105 -0.278,-0.011 -0.52,-0.09 -0.241,-0.079 -0.799,-0.665 -1.102,-1.01 -0.302,-0.346 -0.95,-1.285 -0.95,-1.285 0,0 0.611,0.203 1.203,-0.333 0.593,-0.535 0.617,-1.154 0.617,-1.154 0,0 0.306,0.352 0.659,1.406 0.189,0.568 0.4,1.662 0.357,1.903 -0.043,0.241 -0.122,0.458 -0.264,0.563 z m -2.782,-4.523 c 0.428,-0.428 0.667,-0.256 0.897,-0.175 0.229,0.081 0.781,0.404 0.781,0.404 0,0 -0.487,-0.069 -1.049,0.438 -0.562,0.507 -0.59,0.947 -0.59,0.947 0,0 -0.25,-0.538 -0.284,-0.817 -0.049,-0.385 -0.185,-0.366 0.245,-0.797 z m -75.001,9.601 c -2.315,-1.474 1.942,-4.771 3.652,-5.179 2.202,-0.503 0.647,1.932 0,2.453 -0.462,0.388 -0.938,0.763 -1.42,1.124 -0.732,0.548 -1.505,1.043 -2.232,1.602 z m 83.402,-3.247 3.044,1.632 2.435,1.818 c -0.152,-2.791 -2.971,-4.191 -5.479,-3.45 z m -14.408,3.652 2.435,-3.246 c -1.692,0.113 -2.846,1.555 -2.435,3.246 z m -53.369,-2.774 c 3.17,-0.527 2.007,4.405 1.792,6.427 -0.372,3.189 -0.574,6.335 -0.795,9.537 -0.075,1.106 -0.591,2.366 -0.489,3.45 0.144,1.826 1.625,1.694 2.21,2.903 0.527,1.1 0.039,3.059 -0.167,4.198 -0.341,1.89 -1.404,7.063 -3.585,7.646 -0.938,0.268 -1.94,-0.205 -2.823,-0.456 -2.236,-0.638 -5.885,-1.078 -6.226,-3.943 -0.211,-1.694 0.477,-3.788 0.72,-5.479 0.812,-5.642 2.514,-11.161 4.057,-16.64 0.842,-3.02 1.644,-7.034 5.306,-7.643 z m 66.154,1.354 h -1.015 c 0.193,2.664 3.744,4.32 6.088,4.667 0,-1.321 -0.059,-3.61 -1.071,-4.582 -0.985,-0.949 -3.678,-2.069 -4.002,-0.085 z m -2.841,6.493 -1.42,2.232 c 3.616,-0.564 2.232,-3.844 1.217,-6.088 -1.014,0.968 -0.091,1.749 0.203,2.841 -1.972,-0.298 -3.969,-2.431 -5.276,-3.855 -0.457,-0.529 -1.015,-1.899 -1.827,-1.899 -2.289,0 -1.877,4.606 -0.913,5.711 1.693,1.937 5.784,1.472 8.016,1.058 z m -3.044,-6.696 c -0.203,1.352 1.218,2.101 2.435,2.232 -0.101,-1.321 -1.293,-1.826 -2.435,-2.232 z m -4.059,0.811 4.667,5.276 c -2.576,10e-4 -6.864,-2.029 -4.667,-5.276 z m 10.327,-0.464 c 0.179,-0.322 0.58,-0.706 1.148,-0.765 0.568,0 1.006,0.412 1.006,0.412 0,0 -0.676,0.177 -1.159,0.714 -0.483,0.538 -0.601,1.524 -0.601,1.524 -0.566,-0.118 -0.666,-1.315 -0.394,-1.885 z m 2.251,1.583 c 0.556,-0.542 0.546,-1.38 0.546,-1.38 0,0 0.627,0.459 0.927,1.297 0.306,0.854 0.574,1.851 0.274,2.151 -0.3,0.3 -1.339,-0.188 -1.987,-0.485 -0.529,-0.243 -1.171,-0.895 -1.171,-0.895 0,0 0.887,-0.179 1.411,-0.688 z m -88.471,0.63 c 1.335,-0.07 0.881,1.498 -0.203,1.585 -1.139,0.122 -0.836,-1.507 0.203,-1.585 z m 71.985,13.68 c -0.479,0.452 0.347,1.045 0.662,1.235 0.864,0.485 2.841,1.396 3.722,0.435 0.817,-0.898 -3.761,-2.259 -4.384,-1.67 z m -9.079,1.211 c 1.217,5.236 7.289,7.983 11.973,9.083 1.826,0.455 4.939,0.781 6.291,-0.763 -4.146,-1.073 -7.937,-1.015 -11.77,-3.37 -2.031,-1.232 -4.162,-4.747 -6.494,-4.95 z m -33.29,9.116 c -2.942,11.649 -7.942,21.199 -15.116,27.323 -2.382,2.035 -4.891,2.929 -8.007,2.929 -0.644,0 -2.435,0.308 -2.707,-0.469 -0.353,-0.926 6.528,-6.592 8.675,-8.866 4.633,-5.008 7.963,-10.732 10.266,-17.046 1.218,-3.285 2.425,-6.595 2.435,-10.146 0.8,0 4.771,2.206 4.454,6.275 z m 0.214,3.263 1.015,-6.088 -2.029,-3.247 c 1.215,0.331 2.195,1.683 3.45,1.826 2.029,0.216 4.059,-2.218 6.175,-0.05 0.599,0.62 0.369,1.604 0,2.282 -1.605,2.955 -3.742,0.873 -5.771,2.271 -1.148,0.792 -1.546,2.6 -2.842,3.006 z m -25.163,21.51 c -1.132,-0.359 2.348,-11.305 3.04,-13.155 0.542,-1.453 1.425,-3.949 2.565,-5.035 0.613,-0.59 2.033,-0.396 2.186,0.548 0.213,1.317 -1.352,3.051 -1.816,4.25 -1.474,3.794 -2.583,7.433 -3.563,11.363 -0.283,1.114 -1.28,2.388 -2.412,2.029 z m 55.195,-6.83 c 2.09,-0.41 4.034,1.187 3.044,3.381 -0.538,1.217 -2.764,2.453 -4.059,2.705 -1.112,0.219 -1.335,-1.488 -1.445,-2.3 -0.236,-1.702 0.634,-3.43 2.46,-3.786 z m 2.232,30.775 c -0.406,-1.421 1.553,-4.337 2.188,-5.682 2.192,-4.646 4.712,-9.375 6.479,-14.205 0.595,-1.623 -1.159,-3.434 -0.592,-5.276 0.491,-1.68 2.609,-2.841 4.245,-1.97 1.676,0.917 1.354,2.982 0.219,4.2 -0.806,0.842 -2.104,1.112 -2.798,2.067 -1.22,1.675 -1.93,3.97 -2.792,5.847 -2.287,4.974 -4.31,10.234 -6.949,15.019 z m -3.449,-23.134 -2.778,6.899 -6.151,13.799 h -0.203 c 0.27,-3.043 6.656,-17.633 9.132,-20.698 z m 0,2.639 c 0,0 -4.945,16.045 -7.711,17.857 l 4.988,-11.567 2.723,-6.29 z m 13.596,1.217 -2.147,5.479 -6.173,13.393 h -0.203 c 0.71,-3.991 3.525,-8.285 5.213,-11.973 1.007,-2.197 1.76,-5.026 3.31,-6.899 z m -3.45,1.421 -8.32,18.263 h -0.203 c -0.203,-1.495 1.213,-3.53 1.877,-4.87 1.524,-3.043 2.865,-6.243 4.361,-9.334 0.662,-1.371 1.104,-3.045 2.285,-4.059 z m 3.653,1.623 c -0.406,3.718 -3.378,8.17 -4.933,11.567 -0.552,1.217 -1.031,3.11 -2.169,3.855 l 4.509,-10.146 2.593,-5.276 z m -13.799,0.406 -3.567,8.32 -2.52,5.275 c -0.203,-1.559 1.152,-3.697 1.826,-5.073 1.42,-2.741 2.638,-5.674 3.855,-8.522 h 0.406 z m 14.002,1.218 c 0.323,1.77 -0.544,3.09 -1.246,4.667 -1.238,2.778 -3.295,5.939 -3.827,8.929 1.759,0 2.232,-1.146 2.896,-2.638 1.102,-2.517 2.969,-5.179 3.395,-7.914 h -0.203 l -4.667,10.146 h -0.203 c 0.495,-3.348 2.965,-7.634 4.667,-10.552 0,0 1.258,1.015 1.624,1.015 0.366,0 1.685,-0.354 4.377,-1.467 0.359,-0.118 6.952,-2.186 6.125,-0.905 -0.254,0.399 -1.335,0.093 -1.778,0.343 0,0 -5.197,0.875 -4.825,2.64 0.564,2.716 2.942,5.102 3.608,7.912 1.753,7.103 -0.1,14.426 -1.762,21.308 -0.761,3.155 -2.035,6.696 -3.577,9.537 -0.853,1.577 -2.606,3.362 -3.034,5.073 -0.171,0.678 -0.556,2.184 -0.388,2.841 0.197,0.845 0.988,1.67 0.834,2.604 -0.284,1.737 -1.759,2.364 -1.303,4.499 0.097,0.487 0.284,0.962 0.475,1.421 1.246,3.043 2.839,0.273 5.102,-0.491 0.503,-0.171 1.266,-0.516 1.761,-0.173 1.417,0.986 -0.81,3.505 -1.769,3.912 -0.834,0.365 -2.466,1.084 -3.365,0.687 -1.71,-0.755 -2.557,-4.51 -2.677,-6.167 -0.071,-0.982 0.418,-2.08 0.043,-3.034 -0.284,-0.695 -1.096,-0.947 -1.35,-1.633 -0.355,-0.851 0.152,-1.768 -0.077,-2.639 -0.479,-1.804 -1.501,-3.449 -2.015,-5.275 -1.024,-3.614 -1.321,-7.438 -1.676,-11.161 -0.238,-2.415 0.02,-5.073 0.168,-7.509 0.087,-1 0.475,-2.231 0.082,-3.234 -0.601,-1.489 -3.531,-0.823 -4.545,-0.215 h -0.203 c -0.854,-0.343 -1.352,-0.067 -1.624,0.812 h -0.203 c -0.609,-1.11 -1.922,-0.791 -2.841,-0.203 h -1.42 -0.203 c -1.015,-0.335 -2.841,0.609 -3.45,1.421 -0.812,-0.28 -1.232,-0.193 -1.827,0.405 l -4.87,0.813 c 0.858,-1.508 3.527,-1.551 5.073,-1.827 1.5,-0.304 4.937,-1.107 5.885,-2.319 1.015,-1.235 1.104,-4.153 0.812,-5.595 l 0.609,-0.608 c 1.354,0.209 4.308,-0.446 5.276,-1.42 l 1.218,0.405 0.406,-0.812 h 0.203 l 0.812,0.406 c 0,-2.029 1.341,-4.051 2.198,-5.886 1.249,-2.679 2.321,-5.37 3.279,-8.119 z m -7.103,0.202 -2.258,5.276 -4.641,10.146 h -0.203 l 4.379,-9.943 2.723,-5.479 z m -64.871,0.733 c 1.544,-0.727 5.209,1.826 4.925,3.528 -0.219,1.312 -1.291,0.668 -2.043,1.163 -0.414,0.271 -0.584,0.812 -1.022,1.069 -2.645,1.452 -3.801,-4.847 -1.86,-5.76 z m 58.175,0.079 c -0.15,2.881 -2.519,6.329 -3.744,8.929 -0.452,0.962 -0.801,2.276 -1.735,2.841 1.014,-3.601 3.224,-8.789 5.479,-11.77 z m 16.031,47.485 c 0.466,-2.571 3.043,-4.979 4.04,-7.509 2.521,-6.493 4.592,-13.511 5.073,-20.495 0.217,-3.142 0.122,-6.575 -1.037,-9.537 -0.779,-1.991 -2.89,-4.619 -3.081,-6.692 -0.136,-1.466 3.649,-2.225 4.745,-2.129 1.372,0.119 1.676,1.869 2.007,2.937 0.976,3.141 1.563,6.29 1.905,9.537 0.828,7.914 -4.093,22.53 -4.649,23.945 -0.555,1.413 -4.687,7.933 -9.003,9.943 z m 11.566,-46.47 c 3.929,5.523 4.034,15.493 2.957,21.915 -0.397,2.366 -0.741,4.771 -1.333,7.103 -0.158,0.757 -0.812,2.238 -0.479,2.985 0.404,0.921 1.494,-0.347 1.77,-0.753 1.195,-1.623 1.826,-3.652 2.717,-5.479 2.989,-6.063 5.032,-13.073 5.325,-19.887 h 0.203 c 0,9.369 -3.679,19.563 -8.681,27.395 -1.895,2.967 -3.798,6.045 -6.741,8.117 4.225,-7.695 8.318,-23.138 6.668,-31.774 -0.478,-2.506 -2.406,-9.622 -2.406,-9.622 z m -23.539,0.608 c -0.873,4.077 -3.691,8.401 -5.479,12.176 h -0.203 l 3.981,-8.929 1.701,-3.247 z m 13.799,0 v 0.203 h -0.609 l 0.609,-0.203 z m -16.843,0.203 -4.87,10.552 1.015,0.406 3.578,-7.711 1.698,-3.044 -5.073,11.16 -1.276,-1.059 1.682,-4.049 2.841,-6.256 h 0.405 l 0,0 z m 18.871,3.259 c -1.622,0.215 -4.667,5.615 -2.027,5.429 1.674,-0.118 2.962,-1.121 3.204,-2.803 0.115,-0.8 0.101,-2.799 -1.177,-2.626 z m 0.204,0.597 c 1.206,2.259 -0.406,3.969 -2.638,4.262 0.173,-1.681 1.218,-3.345 2.638,-4.262 z m -20.292,10.552 v 0.203 c -0.846,0.968 -0.497,3.172 -1.339,3.855 -2.622,2.104 -7.325,2.029 -10.43,3.151 -3.36,1.246 -6.106,4.198 -9.74,4.763 1.175,-2.232 5.734,-2.199 6.341,-4.862 0.29,-1.276 -1.987,-1.063 -2.689,-0.988 -3.297,0.372 -6.37,1.605 -9.74,0.98 v -0.203 l 11.161,-2.435 c -0.712,-2.232 -2.51,-1.485 -4.27,-1.421 -2.229,0.039 -5.374,0.021 -7.5,-0.608 v -0.203 c 2.364,-1.005 5.195,-0.812 7.711,-0.812 0.81,0 2.707,0.219 3.247,-0.523 0.771,-0.99 -1.765,-1.276 -2.232,-1.423 -2.663,-0.836 -5.723,-1.301 -8.523,-1.301 0.396,-1.126 1.662,-0.689 2.638,-0.761 2.833,-0.211 5.359,0.558 8.117,0.761 0.916,0.049 3.306,0.345 3.442,-1.015 0.079,-0.785 -0.879,-1.314 -1.413,-1.692 -1.217,-0.842 -2.926,-1.82 -3.044,-3.381 l 7.103,3.45 6.899,1.623 4.261,2.842 z m 15.016,-3.896 c -2.946,0.976 -6.1,1.619 -9.132,2.274 -1.217,0.254 -2.766,0.055 -3.819,0.751 -1.254,0.821 -1.948,3.308 -1.307,4.682 0.629,1.345 3.78,0.507 4.923,0.452 4.059,-0.201 8.32,-0.343 12.378,-0.868 1.189,-0.146 3.247,0.057 4.174,-0.843 1.305,-1.292 0.718,-6.692 -0.094,-8.184 -0.55,-1.016 -5.592,1.228 -7.123,1.736 z m 6.078,-1.248 c 0.755,0.07 0.952,0.883 1.006,1.491 0.116,1.317 0.676,4.767 -0.475,5.71 -1.004,0.824 -3.164,0.444 -4.396,0.605 -3.764,0.49 -7.746,0.691 -11.548,0.789 -1.157,0.03 -2.9,0.614 -3.994,0.077 -1.52,-0.749 0.341,-3.565 1.355,-3.919 3.711,-1.299 7.963,-1.412 11.77,-2.632 1.801,-0.573 4.377,-2.253 6.282,-2.121 z m -5.469,9.521 c -1.532,0.451 -1.355,3.055 -1.42,4.349 -0.203,4.589 0,9.226 0.203,13.799 0.045,0.851 0.122,5.335 1.502,4.901 1.238,-0.39 1.948,-3.183 2.267,-4.292 0.548,-1.979 -0.319,-4.653 -0.487,-6.696 -0.248,-2.596 -0.034,-5.276 -0.034,-7.914 0,-1.561 0.599,-4.918 -2.031,-4.147 z m 0.406,22.409 c -1.015,-0.608 -0.824,-2.94 -0.956,-4.059 -0.501,-4.229 -0.262,-8.522 -0.262,-12.784 0,-1.015 -0.231,-4.385 0.873,-4.87 2.171,-1.013 1.125,4.138 1.242,5.073 0.306,2.436 -0.033,4.876 0.118,7.306 0.122,1.501 0.864,3.174 0.698,4.667 -0.185,1.658 -1.397,3.068 -1.713,4.667 z m -15.017,-21.105 -0.406,1.218 h -0.203 l 0.609,-1.218 z m 1.421,0 -0.203,1.015 h -0.203 l 0.406,-1.015 z m -4.667,0.407 -0.406,1.218 h -0.203 l 0.609,-1.218 z m 1.42,0 -0.609,1.826 h -0.203 l 0.812,-1.826 z m -3.044,0.811 v 0.203 l -0.609,0.812 0.609,-1.015 z m -2.029,0.609 -1.015,2.435 h -0.203 l 1.218,-2.435 z m 3.044,0 -0.203,0.812 h -0.203 l 0.406,-0.812 z m -4.87,0.609 -0.812,2.029 h -0.203 l 1.015,-2.029 z m 3.044,0 -0.609,1.623 h -0.203 l 0.812,-1.623 z m -4.668,0.203 -0.609,1.623 h -0.203 l 0.406,-1.623 h 0.406 z m -1.826,0.405 v 0.609 h -0.203 l 0.203,-0.609 z m -1.826,0.813 -0.812,2.231 h -0.203 l 1.015,-2.231 z m 2.841,0.608 -0.203,0.203 0.203,-0.203 z m -4.668,0.203 -1.217,2.841 h -0.203 l 1.42,-2.841 z m -1.826,0.812 -2.841,6.493 h -0.203 c 0.254,-1.694 1.546,-5.58 3.044,-6.493 z m 33.28,32.062 c -1.218,-1.09 -2.435,-6.813 0.608,-6.275 0.767,0.135 4.095,2.927 3.616,3.708 -0.278,0.452 -1.331,0.538 -1.79,0.74 -0.967,0.406 -1.746,1.041 -2.434,1.827 z"
                 inkscape:connector-curvature="0" />
            </g>
          </g>
        </g>
        <g
           id="g9329">
          <g
             id="heart_87_">
            <path
               id="path9332"
               d="m 40.327,904.142 c -1.945,4.289 2,9.856 2.025,13.967 3.135,-2.657 9.922,-3.299 11.912,-7.566 0.93,-2.016 0.116,-4.375 -1.803,-5.251 -1.929,-0.879 -4.245,0.031 -5.166,2.051 0.925,-2.028 0.116,-4.375 -1.803,-5.251 -1.924,-0.889 -4.235,0.035 -5.165,2.05 z"
               inkscape:connector-curvature="0"
               style="fill:#e6180a" />
          </g>
        </g>
        <g
           id="g9334">
          <g
             id="diamond_87_">
            <path
               id="path9337"
               d="m 57.426,930.825 c -2.478,0.638 -4.955,1.274 -7.432,1.911 0.836,-0.255 1.416,-0.988 1.98,-1.615 1.231,-1.546 2.322,-3.236 3.055,-5.073 0.327,-0.913 0.656,-1.931 0.42,-2.905 m -5.455,9.593 c 1.083,-0.242 2.176,0.205 3.157,0.626 1.759,0.842 3.383,1.965 4.842,3.257 0.554,0.547 1.188,1.115 1.409,1.889 -0.659,-2.561 -1.317,-5.121 -1.976,-7.683 m 1.976,7.682 c -0.257,-1.152 0.185,-2.323 0.615,-3.377 0.797,-1.763 1.854,-3.412 3.105,-4.887 0.499,-0.523 1.016,-1.126 1.735,-1.33 -2.477,0.637 -4.954,1.274 -7.431,1.911 m 7.431,-1.91 c -1.083,0.242 -2.176,-0.205 -3.156,-0.625 -1.759,-0.843 -3.383,-1.966 -4.842,-3.258 -0.554,-0.547 -1.187,-1.116 -1.409,-1.889 0.659,2.561 1.317,5.121 1.977,7.683"
               inkscape:connector-curvature="0"
               style="fill:#e6180a" />
          </g>
        </g>
        <g
           id="g9339">
          <g
             id="club_87_">
            <path
               id="path9342"
               d="m 85.554,930.238 c -0.878,1.584 -2.911,2.138 -4.547,1.23 -1.636,-0.906 -2.244,-2.924 -1.366,-4.508 0.877,-1.583 2.911,-2.137 4.547,-1.229 1.635,0.906 2.244,2.924 1.366,4.507 z"
               inkscape:connector-curvature="0" />
            <path
               id="path9344"
               d="m 86.357,937.784 c -0.877,1.583 -2.911,2.137 -4.547,1.23 -1.636,-0.907 -2.244,-2.925 -1.366,-4.508 0.878,-1.583 2.911,-2.137 4.547,-1.23 1.636,0.907 2.244,2.925 1.366,4.508 z"
               inkscape:connector-curvature="0" />
            <path
               id="path9346"
               d="m 78.773,933.603 c -0.32,0.577 -0.795,1.022 -1.354,1.308 -0.956,0.487 -2.161,0.494 -3.193,-0.078 -1.635,-0.906 -2.244,-2.924 -1.366,-4.507 0.877,-1.584 2.911,-2.138 4.546,-1.23 1.636,0.906 2.244,2.923 1.367,4.507 z"
               inkscape:connector-curvature="0" />
            <path
               id="path9348"
               d="m 79.962,941.545 c -1.461,-0.81 -1.571,-2.426 -1.314,-3.839 0.257,-1.412 0.881,-2.621 0.881,-2.621 l -0.752,-0.417 c 0,0 -2.772,4.672 -5.699,3.062 l 6.884,3.815 z"
               inkscape:connector-curvature="0" />
            <path
               id="path9350"
               d="m 79.427,929.597 c 0.741,2.583 -0.641,5.076 -0.641,5.076 l 0.739,0.421 c 0,0 1.411,-2.546 3.926,-3.267"
               inkscape:connector-curvature="0" />
            <path
               id="path9352"
               d="m 76.802,935.117 c 2.583,-0.74 5.076,0.642 5.076,0.642 l 0.412,-0.744 c 0,0 -2.545,-1.41 -3.267,-3.926"
               inkscape:connector-curvature="0" />
            <path
               id="path9354"
               d="m 80.129,936.973 c -0.741,-2.583 -3.234,-3.965 -3.234,-3.965 l 0.412,-0.744 c 0,0 2.545,1.411 5.061,0.69"
               inkscape:connector-curvature="0" />
          </g>
        </g>
        <g
           id="g9356">
          <g
             id="spade_87_">
            <path
               id="path9359"
               d="m 62,892.12 c -1.604,0.463 -2.942,-1.004 -3.877,-2.586 -0.935,-1.583 -1.466,-3.281 -1.466,-3.281 l -0.819,0.226 c 0,0 1.821,6.894 -1.388,7.818 L 62,892.12 z"
               inkscape:connector-curvature="0" />
            <path
               id="path9361"
               d="m 62.745,884.487 c -0.971,-3.33 -6.673,-4.309 -8.902,-6.518 -0.708,3.065 -5.016,6.93 -4.067,10.256 0.454,1.575 2.273,2.435 4.069,1.917 1.787,-0.515 2.869,-2.211 2.415,-3.786 0.454,1.575 2.273,2.436 4.069,1.917 1.797,-0.518 2.87,-2.211 2.416,-3.786 z"
               inkscape:connector-curvature="0" />
          </g>
        </g>
      </g>
    </g>
  </g>
</svg>
